<svg xmlns="http://www.w3.org/2000/svg" xmlns:xlink="http://www.w3.org/1999/xlink" width="2000" zoomAndPan="magnify" viewBox="0 0 1500 1499.999933" height="2000" preserveAspectRatio="xMidYMid meet" version="1.0"><defs><g/><clipPath id="05bc1af14f"><path d="M 595 61 L 1268.984375 61 L 1268.984375 253 L 595 253 Z M 595 61 " clip-rule="nonzero"/></clipPath><clipPath id="ccfae3449f"><path d="M 513.773438 120 L 680 120 L 680 223 L 513.773438 223 Z M 513.773438 120 " clip-rule="nonzero"/></clipPath><clipPath id="574b3a97c3"><path d="M 902 5.738281 L 1212 5.738281 L 1212 183 L 902 183 Z M 902 5.738281 " clip-rule="nonzero"/></clipPath><clipPath id="03cf0be900"><rect x="0" width="1388" y="0" height="814"/></clipPath></defs><g transform="matrix(1, 0, 0, 1, 53, 342)"><g clip-path="url(#03cf0be900)"><g fill="#ffffff" fill-opacity="1"><g transform="translate(0.517066, 252.983479)"><g><path d="M 89.34375 3.90625 C 83.34375 3.90625 78.164062 3.296875 73.8125 2.078125 C 69.46875 0.867188 65.816406 -0.34375 62.859375 -1.5625 C 59.898438 -2.78125 57.421875 -3.390625 55.421875 -3.390625 C 53.335938 -3.390625 51.445312 -2.972656 49.75 -2.140625 C 48.0625 -1.316406 46.410156 -0.382812 44.796875 0.65625 C 43.191406 1.695312 41.5625 2.628906 39.90625 3.453125 C 38.257812 4.273438 36.476562 4.6875 34.5625 4.6875 C 31.863281 4.6875 29.644531 3.90625 27.90625 2.34375 C 26.164062 0.78125 24.992188 -1.828125 24.390625 -5.484375 L 16.953125 -49.953125 C 16.171875 -55.078125 18.519531 -58.640625 24 -60.640625 C 29.644531 -62.640625 34.164062 -60.46875 37.5625 -54.125 C 43.039062 -43.863281 48.34375 -35.90625 53.46875 -30.25 C 58.601562 -24.601562 63.753906 -20.671875 68.921875 -18.453125 C 74.097656 -16.234375 79.425781 -15.125 84.90625 -15.125 C 92.125 -15.125 97.90625 -16.796875 102.25 -20.140625 C 106.59375 -23.492188 108.765625 -28.257812 108.765625 -34.4375 C 108.765625 -37.5625 108.222656 -40.382812 107.140625 -42.90625 C 106.054688 -45.425781 103.988281 -47.816406 100.9375 -50.078125 C 97.894531 -52.335938 93.523438 -54.597656 87.828125 -56.859375 C 82.140625 -59.117188 74.6875 -61.597656 65.46875 -64.296875 C 51.90625 -68.296875 41.035156 -73.078125 32.859375 -78.640625 C 24.691406 -84.203125 18.78125 -91.023438 15.125 -99.109375 C 11.476562 -107.203125 9.65625 -116.859375 9.65625 -128.078125 C 9.65625 -136.503906 11.21875 -144.238281 14.34375 -151.28125 C 17.476562 -158.332031 21.976562 -164.441406 27.84375 -169.609375 C 33.71875 -174.785156 40.804688 -178.804688 49.109375 -181.671875 C 57.410156 -184.546875 66.734375 -185.984375 77.078125 -185.984375 C 84.210938 -185.984375 90.273438 -185.375 95.265625 -184.15625 C 100.265625 -182.9375 104.546875 -181.695312 108.109375 -180.4375 C 111.679688 -179.175781 114.769531 -178.546875 117.375 -178.546875 C 118.945312 -178.546875 120.40625 -178.957031 121.75 -179.78125 C 123.09375 -180.613281 124.4375 -181.570312 125.78125 -182.65625 C 127.132812 -183.738281 128.632812 -184.691406 130.28125 -185.515625 C 131.9375 -186.347656 133.851562 -186.765625 136.03125 -186.765625 C 138.8125 -186.765625 141.15625 -185.875 143.0625 -184.09375 C 144.976562 -182.3125 146.632812 -178.941406 148.03125 -173.984375 L 159.640625 -131.203125 C 160.503906 -127.984375 160.367188 -125.132812 159.234375 -122.65625 C 158.109375 -120.175781 156.113281 -118.460938 153.25 -117.515625 C 150.289062 -116.554688 147.703125 -116.640625 145.484375 -117.765625 C 143.265625 -118.898438 141.414062 -120.859375 139.9375 -123.640625 C 134.375 -134.597656 128.441406 -143.226562 122.140625 -149.53125 C 115.835938 -155.832031 109.488281 -160.304688 103.09375 -162.953125 C 96.707031 -165.609375 90.515625 -166.9375 84.515625 -166.9375 C 77.640625 -166.9375 72.3125 -165.046875 68.53125 -161.265625 C 64.75 -157.484375 62.859375 -152.59375 62.859375 -146.59375 C 62.859375 -143.726562 63.359375 -141.054688 64.359375 -138.578125 C 65.359375 -136.097656 67.289062 -133.660156 70.15625 -131.265625 C 73.03125 -128.878906 77.269531 -126.378906 82.875 -123.765625 C 88.488281 -121.160156 95.859375 -118.25 104.984375 -115.03125 C 118.285156 -110.425781 128.9375 -105.316406 136.9375 -99.703125 C 144.9375 -94.097656 150.738281 -87.578125 154.34375 -80.140625 C 157.957031 -72.710938 159.765625 -63.953125 159.765625 -53.859375 C 159.765625 -45.773438 158.15625 -38.253906 154.9375 -31.296875 C 151.71875 -24.347656 147.066406 -18.21875 140.984375 -12.90625 C 134.898438 -7.601562 127.507812 -3.472656 118.8125 -0.515625 C 110.113281 2.429688 100.289062 3.90625 89.34375 3.90625 Z M 89.34375 3.90625 "/></g></g></g><g fill="#ffffff" fill-opacity="1"><g transform="translate(169.674916, 252.983479)"><g><path d="M 197.71875 -118.546875 C 197.71875 -109.160156 195.109375 -100.660156 189.890625 -93.046875 C 184.671875 -85.441406 177.28125 -79.554688 167.71875 -75.390625 L 195.5 -27.78125 C 197.0625 -25.082031 198.472656 -23.054688 199.734375 -21.703125 C 200.992188 -20.359375 202.625 -19.210938 204.625 -18.265625 C 206.800781 -17.210938 208.390625 -15.945312 209.390625 -14.46875 C 210.390625 -13 210.890625 -11.132812 210.890625 -8.875 C 210.890625 -6.175781 209.976562 -4.019531 208.15625 -2.40625 C 206.332031 -0.800781 203.503906 0 199.671875 0 L 134.984375 0 C 127.859375 0 124.296875 -2.957031 124.296875 -8.875 C 124.296875 -11.5625 125.554688 -13.820312 128.078125 -15.65625 L 129.640625 -16.828125 C 131.203125 -18.046875 132.09375 -19.21875 132.3125 -20.34375 C 132.53125 -21.476562 132.070312 -23.128906 130.9375 -25.296875 L 111.640625 -63.640625 C 103.554688 -63.898438 96.515625 -64.945312 90.515625 -66.78125 L 90.515625 -28.953125 C 90.515625 -26.773438 90.925781 -25.035156 91.75 -23.734375 C 92.570312 -22.429688 93.941406 -21.300781 95.859375 -20.34375 L 99.515625 -18.515625 C 102.210938 -17.210938 104.015625 -15.84375 104.921875 -14.40625 C 105.835938 -12.976562 106.296875 -11.132812 106.296875 -8.875 C 106.296875 -6.175781 105.378906 -4.019531 103.546875 -2.40625 C 101.722656 -0.800781 98.898438 0 95.078125 0 L 22.828125 0 C 18.992188 0 16.164062 -0.800781 14.34375 -2.40625 C 12.519531 -4.019531 11.609375 -6.175781 11.609375 -8.875 C 11.609375 -11.132812 12.128906 -13.085938 13.171875 -14.734375 C 14.210938 -16.390625 15.953125 -17.648438 18.390625 -18.515625 L 23.34375 -20.34375 C 27.78125 -22.082031 30 -24.953125 30 -28.953125 L 30 -153.640625 C 30 -157.722656 27.78125 -160.59375 23.34375 -162.25 L 18.390625 -164.078125 C 15.953125 -165.023438 14.210938 -166.300781 13.171875 -167.90625 C 12.128906 -169.519531 11.609375 -171.457031 11.609375 -173.71875 C 11.609375 -176.5 12.519531 -178.671875 14.34375 -180.234375 C 16.164062 -181.804688 18.992188 -182.59375 22.828125 -182.59375 L 98.078125 -182.59375 C 119.554688 -182.59375 137.707031 -179.894531 152.53125 -174.5 C 167.351562 -169.113281 178.585938 -161.613281 186.234375 -152 C 193.890625 -142.394531 197.71875 -131.242188 197.71875 -118.546875 Z M 90.515625 -165.640625 L 90.515625 -83.078125 C 94.160156 -82.296875 98.375 -81.90625 103.15625 -81.90625 C 113.507812 -81.90625 121.554688 -84.773438 127.296875 -90.515625 C 133.035156 -96.253906 135.90625 -105.164062 135.90625 -117.25 C 135.90625 -124.289062 134.90625 -130.742188 132.90625 -136.609375 C 130.90625 -142.484375 128.097656 -147.59375 124.484375 -151.9375 C 120.878906 -156.289062 116.617188 -159.660156 111.703125 -162.046875 C 106.796875 -164.441406 101.425781 -165.640625 95.59375 -165.640625 Z M 90.515625 -165.640625 "/></g></g></g><g fill="#ffffff" fill-opacity="1"><g transform="translate(386.56734, 252.983479)"><g><path d="M 90.515625 -28.953125 C 90.515625 -24.953125 92.734375 -22.082031 97.171875 -20.34375 L 102.125 -18.515625 C 104.550781 -17.648438 106.285156 -16.390625 107.328125 -14.734375 C 108.378906 -13.085938 108.90625 -11.132812 108.90625 -8.875 C 108.90625 -6.175781 107.988281 -4.019531 106.15625 -2.40625 C 104.332031 -0.800781 101.507812 0 97.6875 0 L 22.828125 0 C 18.992188 0 16.164062 -0.800781 14.34375 -2.40625 C 12.519531 -4.019531 11.609375 -6.175781 11.609375 -8.875 C 11.609375 -11.132812 12.128906 -13.085938 13.171875 -14.734375 C 14.210938 -16.390625 15.953125 -17.648438 18.390625 -18.515625 L 23.34375 -20.34375 C 27.78125 -22.082031 30 -24.953125 30 -28.953125 L 30 -153.640625 C 30 -157.722656 27.78125 -160.59375 23.34375 -162.25 L 18.390625 -164.078125 C 15.953125 -165.023438 14.210938 -166.300781 13.171875 -167.90625 C 12.128906 -169.519531 11.609375 -171.457031 11.609375 -173.71875 C 11.609375 -176.5 12.519531 -178.671875 14.34375 -180.234375 C 16.164062 -181.804688 18.992188 -182.59375 22.828125 -182.59375 L 97.6875 -182.59375 C 101.507812 -182.59375 104.332031 -181.804688 106.15625 -180.234375 C 107.988281 -178.671875 108.90625 -176.5 108.90625 -173.71875 C 108.90625 -171.457031 108.378906 -169.519531 107.328125 -167.90625 C 106.285156 -166.300781 104.550781 -165.023438 102.125 -164.078125 L 97.171875 -162.25 C 92.734375 -160.59375 90.515625 -157.722656 90.515625 -153.640625 Z M 90.515625 -28.953125 "/></g></g></g><g fill="#ffffff" fill-opacity="1"><g transform="translate(0.517066, 499.419864)"><g><path d="M 89.34375 3.90625 C 83.34375 3.90625 78.164062 3.296875 73.8125 2.078125 C 69.46875 0.867188 65.816406 -0.34375 62.859375 -1.5625 C 59.898438 -2.78125 57.421875 -3.390625 55.421875 -3.390625 C 53.335938 -3.390625 51.445312 -2.972656 49.75 -2.140625 C 48.0625 -1.316406 46.410156 -0.382812 44.796875 0.65625 C 43.191406 1.695312 41.5625 2.628906 39.90625 3.453125 C 38.257812 4.273438 36.476562 4.6875 34.5625 4.6875 C 31.863281 4.6875 29.644531 3.90625 27.90625 2.34375 C 26.164062 0.78125 24.992188 -1.828125 24.390625 -5.484375 L 16.953125 -49.953125 C 16.171875 -55.078125 18.519531 -58.640625 24 -60.640625 C 29.644531 -62.640625 34.164062 -60.46875 37.5625 -54.125 C 43.039062 -43.863281 48.34375 -35.90625 53.46875 -30.25 C 58.601562 -24.601562 63.753906 -20.671875 68.921875 -18.453125 C 74.097656 -16.234375 79.425781 -15.125 84.90625 -15.125 C 92.125 -15.125 97.90625 -16.796875 102.25 -20.140625 C 106.59375 -23.492188 108.765625 -28.257812 108.765625 -34.4375 C 108.765625 -37.5625 108.222656 -40.382812 107.140625 -42.90625 C 106.054688 -45.425781 103.988281 -47.816406 100.9375 -50.078125 C 97.894531 -52.335938 93.523438 -54.597656 87.828125 -56.859375 C 82.140625 -59.117188 74.6875 -61.597656 65.46875 -64.296875 C 51.90625 -68.296875 41.035156 -73.078125 32.859375 -78.640625 C 24.691406 -84.203125 18.78125 -91.023438 15.125 -99.109375 C 11.476562 -107.203125 9.65625 -116.859375 9.65625 -128.078125 C 9.65625 -136.503906 11.21875 -144.238281 14.34375 -151.28125 C 17.476562 -158.332031 21.976562 -164.441406 27.84375 -169.609375 C 33.71875 -174.785156 40.804688 -178.804688 49.109375 -181.671875 C 57.410156 -184.546875 66.734375 -185.984375 77.078125 -185.984375 C 84.210938 -185.984375 90.273438 -185.375 95.265625 -184.15625 C 100.265625 -182.9375 104.546875 -181.695312 108.109375 -180.4375 C 111.679688 -179.175781 114.769531 -178.546875 117.375 -178.546875 C 118.945312 -178.546875 120.40625 -178.957031 121.75 -179.78125 C 123.09375 -180.613281 124.4375 -181.570312 125.78125 -182.65625 C 127.132812 -183.738281 128.632812 -184.691406 130.28125 -185.515625 C 131.9375 -186.347656 133.851562 -186.765625 136.03125 -186.765625 C 138.8125 -186.765625 141.15625 -185.875 143.0625 -184.09375 C 144.976562 -182.3125 146.632812 -178.941406 148.03125 -173.984375 L 159.640625 -131.203125 C 160.503906 -127.984375 160.367188 -125.132812 159.234375 -122.65625 C 158.109375 -120.175781 156.113281 -118.460938 153.25 -117.515625 C 150.289062 -116.554688 147.703125 -116.640625 145.484375 -117.765625 C 143.265625 -118.898438 141.414062 -120.859375 139.9375 -123.640625 C 134.375 -134.597656 128.441406 -143.226562 122.140625 -149.53125 C 115.835938 -155.832031 109.488281 -160.304688 103.09375 -162.953125 C 96.707031 -165.609375 90.515625 -166.9375 84.515625 -166.9375 C 77.640625 -166.9375 72.3125 -165.046875 68.53125 -161.265625 C 64.75 -157.484375 62.859375 -152.59375 62.859375 -146.59375 C 62.859375 -143.726562 63.359375 -141.054688 64.359375 -138.578125 C 65.359375 -136.097656 67.289062 -133.660156 70.15625 -131.265625 C 73.03125 -128.878906 77.269531 -126.378906 82.875 -123.765625 C 88.488281 -121.160156 95.859375 -118.25 104.984375 -115.03125 C 118.285156 -110.425781 128.9375 -105.316406 136.9375 -99.703125 C 144.9375 -94.097656 150.738281 -87.578125 154.34375 -80.140625 C 157.957031 -72.710938 159.765625 -63.953125 159.765625 -53.859375 C 159.765625 -45.773438 158.15625 -38.253906 154.9375 -31.296875 C 151.71875 -24.347656 147.066406 -18.21875 140.984375 -12.90625 C 134.898438 -7.601562 127.507812 -3.472656 118.8125 -0.515625 C 110.113281 2.429688 100.289062 3.90625 89.34375 3.90625 Z M 89.34375 3.90625 "/></g></g></g><g fill="#ffffff" fill-opacity="1"><g transform="translate(169.674916, 499.419864)"><g><path d="M 90.515625 -28.953125 C 90.515625 -24.953125 92.734375 -22.082031 97.171875 -20.34375 L 102.125 -18.515625 C 104.550781 -17.648438 106.285156 -16.390625 107.328125 -14.734375 C 108.378906 -13.085938 108.90625 -11.132812 108.90625 -8.875 C 108.90625 -6.175781 107.988281 -4.019531 106.15625 -2.40625 C 104.332031 -0.800781 101.507812 0 97.6875 0 L 22.828125 0 C 18.992188 0 16.164062 -0.800781 14.34375 -2.40625 C 12.519531 -4.019531 11.609375 -6.175781 11.609375 -8.875 C 11.609375 -11.132812 12.128906 -13.085938 13.171875 -14.734375 C 14.210938 -16.390625 15.953125 -17.648438 18.390625 -18.515625 L 23.34375 -20.34375 C 27.78125 -22.082031 30 -24.953125 30 -28.953125 L 30 -153.640625 C 30 -157.722656 27.78125 -160.59375 23.34375 -162.25 L 18.390625 -164.078125 C 15.953125 -165.023438 14.210938 -166.300781 13.171875 -167.90625 C 12.128906 -169.519531 11.609375 -171.457031 11.609375 -173.71875 C 11.609375 -176.5 12.519531 -178.671875 14.34375 -180.234375 C 16.164062 -181.804688 18.992188 -182.59375 22.828125 -182.59375 L 97.6875 -182.59375 C 101.507812 -182.59375 104.332031 -181.804688 106.15625 -180.234375 C 107.988281 -178.671875 108.90625 -176.5 108.90625 -173.71875 C 108.90625 -171.457031 108.378906 -169.519531 107.328125 -167.90625 C 106.285156 -166.300781 104.550781 -165.023438 102.125 -164.078125 L 97.171875 -162.25 C 92.734375 -160.59375 90.515625 -157.722656 90.515625 -153.640625 L 90.515625 -96.125 L 144.90625 -96.125 L 144.90625 -153.640625 C 144.90625 -157.722656 142.6875 -160.59375 138.25 -162.25 L 133.296875 -164.078125 C 130.859375 -165.023438 129.117188 -166.300781 128.078125 -167.90625 C 127.035156 -169.519531 126.515625 -171.457031 126.515625 -173.71875 C 126.515625 -176.5 127.425781 -178.671875 129.25 -180.234375 C 131.070312 -181.804688 133.894531 -182.59375 137.71875 -182.59375 L 212.59375 -182.59375 C 216.414062 -182.59375 219.238281 -181.804688 221.0625 -180.234375 C 222.882812 -178.671875 223.796875 -176.5 223.796875 -173.71875 C 223.796875 -171.457031 223.273438 -169.519531 222.234375 -167.90625 C 221.191406 -166.300781 219.453125 -165.023438 217.015625 -164.078125 L 212.0625 -162.25 C 207.632812 -160.59375 205.421875 -157.722656 205.421875 -153.640625 L 205.421875 -28.953125 C 205.421875 -24.953125 207.632812 -22.082031 212.0625 -20.34375 L 217.015625 -18.515625 C 219.453125 -17.648438 221.191406 -16.390625 222.234375 -14.734375 C 223.273438 -13.085938 223.796875 -11.132812 223.796875 -8.875 C 223.796875 -6.175781 222.882812 -4.019531 221.0625 -2.40625 C 219.238281 -0.800781 216.414062 0 212.59375 0 L 137.71875 0 C 133.894531 0 131.070312 -0.800781 129.25 -2.40625 C 127.425781 -4.019531 126.515625 -6.175781 126.515625 -8.875 C 126.515625 -11.132812 127.035156 -13.085938 128.078125 -14.734375 C 129.117188 -16.390625 130.859375 -17.648438 133.296875 -18.515625 L 138.25 -20.34375 C 142.6875 -22.082031 144.90625 -24.953125 144.90625 -28.953125 L 144.90625 -76.6875 L 90.515625 -76.6875 Z M 90.515625 -28.953125 "/></g></g></g><g fill="#ffffff" fill-opacity="1"><g transform="translate(405.087312, 499.419864)"><g><path d="M 67.5625 -8.875 C 67.5625 -6.175781 66.671875 -4.019531 64.890625 -2.40625 C 63.109375 -0.800781 60.300781 0 56.46875 0 L 14.734375 0 C 10.992188 0 8.210938 -0.800781 6.390625 -2.40625 C 4.566406 -4.019531 3.65625 -6.175781 3.65625 -8.875 C 3.65625 -12.34375 5.609375 -15.296875 9.515625 -17.734375 L 12.265625 -19.4375 C 14.171875 -20.65625 15.773438 -21.957031 17.078125 -23.34375 C 18.390625 -24.738281 19.585938 -26.671875 20.671875 -29.140625 C 21.753906 -31.617188 22.953125 -34.988281 24.265625 -39.25 L 57.640625 -147.109375 C 59.210938 -152.242188 59.78125 -155.960938 59.34375 -158.265625 C 58.90625 -160.566406 57.125 -162.457031 54 -163.9375 C 51.5625 -165.15625 49.84375 -166.546875 48.84375 -168.109375 C 47.84375 -169.679688 47.34375 -171.550781 47.34375 -173.71875 C 47.34375 -176.5 48.253906 -178.671875 50.078125 -180.234375 C 51.910156 -181.804688 54.738281 -182.59375 58.5625 -182.59375 L 142.421875 -182.59375 C 146.242188 -182.59375 149.066406 -181.804688 150.890625 -180.234375 C 152.722656 -178.671875 153.640625 -176.5 153.640625 -173.71875 C 153.640625 -171.375 153.09375 -169.441406 152 -167.921875 C 150.914062 -166.398438 149.375 -165.160156 147.375 -164.203125 C 145.195312 -163.160156 143.910156 -161.742188 143.515625 -159.953125 C 143.128906 -158.171875 143.546875 -155.367188 144.765625 -151.546875 L 180.640625 -37.953125 C 182.460938 -32.128906 184.113281 -27.847656 185.59375 -25.109375 C 187.070312 -22.367188 189.023438 -20.390625 191.453125 -19.171875 C 194.503906 -17.609375 196.550781 -16.085938 197.59375 -14.609375 C 198.632812 -13.128906 199.15625 -11.21875 199.15625 -8.875 C 199.15625 -6.175781 198.238281 -4.019531 196.40625 -2.40625 C 194.582031 -0.800781 191.757812 0 187.9375 0 L 119.078125 0 C 115.160156 0 112.3125 -0.800781 110.53125 -2.40625 C 108.75 -4.019531 107.859375 -6.175781 107.859375 -8.875 C 107.859375 -11.039062 108.421875 -12.796875 109.546875 -14.140625 C 110.679688 -15.492188 112.378906 -16.691406 114.640625 -17.734375 L 118.8125 -19.6875 C 121.070312 -20.738281 122.023438 -22.15625 121.671875 -23.9375 C 121.328125 -25.71875 120.550781 -28.609375 119.34375 -32.609375 L 111.640625 -58.296875 L 53.859375 -58.296875 L 49.03125 -42.640625 C 47.644531 -38.210938 46.929688 -34.628906 46.890625 -31.890625 C 46.847656 -29.148438 47.648438 -26.84375 49.296875 -24.96875 C 50.953125 -23.101562 53.601562 -21.210938 57.25 -19.296875 L 60.90625 -17.46875 C 62.90625 -16.425781 64.515625 -15.273438 65.734375 -14.015625 C 66.953125 -12.753906 67.5625 -11.039062 67.5625 -8.875 Z M 59.859375 -77.734375 L 105.765625 -77.734375 L 83.078125 -152.71875 Z M 59.859375 -77.734375 "/></g></g></g><g fill="#ffffff" fill-opacity="1"><g transform="translate(610.632998, 499.419864)"><g><path d="M 90.515625 -28.953125 C 90.515625 -26.773438 90.925781 -25.035156 91.75 -23.734375 C 92.570312 -22.429688 93.941406 -21.300781 95.859375 -20.34375 L 99.515625 -18.515625 C 102.210938 -17.210938 104.015625 -15.84375 104.921875 -14.40625 C 105.835938 -12.976562 106.296875 -11.132812 106.296875 -8.875 C 106.296875 -6.175781 105.378906 -4.019531 103.546875 -2.40625 C 101.722656 -0.800781 98.898438 0 95.078125 0 L 22.828125 0 C 18.992188 0 16.164062 -0.800781 14.34375 -2.40625 C 12.519531 -4.019531 11.609375 -6.175781 11.609375 -8.875 C 11.609375 -11.132812 12.128906 -13.085938 13.171875 -14.734375 C 14.210938 -16.390625 15.953125 -17.648438 18.390625 -18.515625 L 23.34375 -20.34375 C 27.78125 -22.082031 30 -24.953125 30 -28.953125 L 30 -153.640625 C 30 -157.722656 27.78125 -160.59375 23.34375 -162.25 L 18.390625 -164.078125 C 15.953125 -165.023438 14.210938 -166.300781 13.171875 -167.90625 C 12.128906 -169.519531 11.609375 -171.457031 11.609375 -173.71875 C 11.609375 -176.5 12.519531 -178.671875 14.34375 -180.234375 C 16.164062 -181.804688 18.992188 -182.59375 22.828125 -182.59375 L 97.6875 -182.59375 C 101.507812 -182.59375 104.332031 -181.804688 106.15625 -180.234375 C 107.988281 -178.671875 108.90625 -176.5 108.90625 -173.71875 C 108.90625 -171.457031 108.378906 -169.519531 107.328125 -167.90625 C 106.285156 -166.300781 104.550781 -165.023438 102.125 -164.078125 L 97.171875 -162.25 C 92.734375 -160.59375 90.515625 -157.722656 90.515625 -153.640625 L 90.515625 -91.171875 L 139.03125 -136.6875 C 145.988281 -143.289062 149.570312 -148.742188 149.78125 -153.046875 C 150 -157.347656 147.765625 -160.546875 143.078125 -162.640625 L 139.296875 -164.328125 C 137.035156 -165.367188 135.359375 -166.628906 134.265625 -168.109375 C 133.179688 -169.585938 132.640625 -171.457031 132.640625 -173.71875 C 132.640625 -176.5 133.550781 -178.671875 135.375 -180.234375 C 137.195312 -181.804688 140.023438 -182.59375 143.859375 -182.59375 L 201.375 -182.59375 C 205.195312 -182.59375 208.019531 -181.804688 209.84375 -180.234375 C 211.675781 -178.671875 212.59375 -176.5 212.59375 -173.71875 C 212.59375 -171.375 211.914062 -169.546875 210.5625 -168.234375 C 209.21875 -166.929688 206.632812 -165.457031 202.8125 -163.8125 C 201.59375 -163.289062 200.304688 -162.613281 198.953125 -161.78125 C 197.609375 -160.957031 195.757812 -159.609375 193.40625 -157.734375 C 191.0625 -155.867188 187.847656 -153.128906 183.765625 -149.515625 C 179.679688 -145.910156 174.25 -141.066406 167.46875 -134.984375 L 151.03125 -120.25 L 205.421875 -29.46875 C 207.503906 -26 209.347656 -23.585938 210.953125 -22.234375 C 212.566406 -20.890625 214.195312 -19.910156 215.84375 -19.296875 C 218.195312 -18.078125 219.875 -16.578125 220.875 -14.796875 C 221.875 -13.015625 222.375 -11.039062 222.375 -8.875 C 222.375 -6.175781 221.457031 -4.019531 219.625 -2.40625 C 217.800781 -0.800781 214.976562 0 211.15625 0 L 137.46875 0 C 133.632812 0 130.804688 -0.800781 128.984375 -2.40625 C 127.160156 -4.019531 126.25 -6.21875 126.25 -9 C 126.25 -11.257812 126.769531 -13.171875 127.8125 -14.734375 C 128.851562 -16.296875 130.203125 -17.382812 131.859375 -18 L 135.25 -19.296875 C 136.8125 -19.910156 137.570312 -21.039062 137.53125 -22.6875 C 137.488281 -24.34375 136.421875 -26.953125 134.328125 -30.515625 L 105.640625 -79.421875 L 90.515625 -65.734375 Z M 90.515625 -28.953125 "/></g></g></g><g fill="#ffffff" fill-opacity="1"><g transform="translate(836.394169, 499.419864)"><g><path d="M 53.609375 -182.59375 L 140.984375 -182.59375 C 144.984375 -182.59375 148.394531 -182.9375 151.21875 -183.625 C 154.050781 -184.320312 156.597656 -185 158.859375 -185.65625 C 161.117188 -186.3125 163.378906 -186.640625 165.640625 -186.640625 C 169.898438 -186.640625 173.070312 -185.613281 175.15625 -183.5625 C 177.238281 -181.519531 178.9375 -178.066406 180.25 -173.203125 L 188.59375 -129.765625 C 189.289062 -126.285156 189.003906 -123.457031 187.734375 -121.28125 C 186.472656 -119.113281 184.320312 -117.769531 181.28125 -117.25 C 178.5 -116.644531 176.039062 -116.816406 173.90625 -117.765625 C 171.78125 -118.722656 169.976562 -120.679688 168.5 -123.640625 C 164.675781 -131.285156 161.285156 -137.648438 158.328125 -142.734375 C 155.367188 -147.828125 152.609375 -151.828125 150.046875 -154.734375 C 147.484375 -157.648438 144.941406 -159.738281 142.421875 -161 C 139.898438 -162.257812 137.160156 -162.890625 134.203125 -162.890625 L 127.546875 -162.890625 L 127.546875 -28.953125 C 127.546875 -24.953125 129.765625 -22.082031 134.203125 -20.34375 L 139.15625 -18.515625 C 141.59375 -17.648438 143.332031 -16.390625 144.375 -14.734375 C 145.414062 -13.085938 145.9375 -11.132812 145.9375 -8.875 C 145.9375 -6.175781 145.023438 -4.019531 143.203125 -2.40625 C 141.378906 -0.800781 138.550781 0 134.71875 0 L 59.859375 0 C 56.035156 0 53.207031 -0.800781 51.375 -2.40625 C 49.550781 -4.019531 48.640625 -6.175781 48.640625 -8.875 C 48.640625 -11.132812 49.160156 -13.085938 50.203125 -14.734375 C 51.253906 -16.390625 52.992188 -17.648438 55.421875 -18.515625 L 60.390625 -20.34375 C 64.816406 -22.082031 67.03125 -24.953125 67.03125 -28.953125 L 67.03125 -162.890625 L 60.390625 -162.890625 C 57.429688 -162.890625 54.691406 -162.257812 52.171875 -161 C 49.648438 -159.738281 47.101562 -157.648438 44.53125 -154.734375 C 41.96875 -151.828125 39.207031 -147.828125 36.25 -142.734375 C 33.300781 -137.648438 29.910156 -131.285156 26.078125 -123.640625 C 24.609375 -120.679688 22.804688 -118.722656 20.671875 -117.765625 C 18.535156 -116.816406 16.078125 -116.644531 13.296875 -117.25 C 10.347656 -117.769531 8.242188 -119.113281 6.984375 -121.28125 C 5.722656 -123.457031 5.394531 -126.285156 6 -129.765625 L 14.34375 -173.203125 C 15.644531 -178.066406 17.335938 -181.519531 19.421875 -183.5625 C 21.515625 -185.613281 24.691406 -186.640625 28.953125 -186.640625 C 31.210938 -186.640625 33.472656 -186.3125 35.734375 -185.65625 C 37.992188 -185 40.535156 -184.320312 43.359375 -183.625 C 46.191406 -182.9375 49.609375 -182.59375 53.609375 -182.59375 Z M 53.609375 -182.59375 "/></g></g></g><g fill="#ffffff" fill-opacity="1"><g transform="translate(1030.984343, 499.419864)"><g><path d="M 90.515625 -28.953125 C 90.515625 -24.953125 92.734375 -22.082031 97.171875 -20.34375 L 102.125 -18.515625 C 104.550781 -17.648438 106.285156 -16.390625 107.328125 -14.734375 C 108.378906 -13.085938 108.90625 -11.132812 108.90625 -8.875 C 108.90625 -6.175781 107.988281 -4.019531 106.15625 -2.40625 C 104.332031 -0.800781 101.507812 0 97.6875 0 L 22.828125 0 C 18.992188 0 16.164062 -0.800781 14.34375 -2.40625 C 12.519531 -4.019531 11.609375 -6.175781 11.609375 -8.875 C 11.609375 -11.132812 12.128906 -13.085938 13.171875 -14.734375 C 14.210938 -16.390625 15.953125 -17.648438 18.390625 -18.515625 L 23.34375 -20.34375 C 27.78125 -22.082031 30 -24.953125 30 -28.953125 L 30 -153.640625 C 30 -157.722656 27.78125 -160.59375 23.34375 -162.25 L 18.390625 -164.078125 C 15.953125 -165.023438 14.210938 -166.300781 13.171875 -167.90625 C 12.128906 -169.519531 11.609375 -171.457031 11.609375 -173.71875 C 11.609375 -176.5 12.519531 -178.671875 14.34375 -180.234375 C 16.164062 -181.804688 18.992188 -182.59375 22.828125 -182.59375 L 97.6875 -182.59375 C 101.507812 -182.59375 104.332031 -181.804688 106.15625 -180.234375 C 107.988281 -178.671875 108.90625 -176.5 108.90625 -173.71875 C 108.90625 -171.457031 108.378906 -169.519531 107.328125 -167.90625 C 106.285156 -166.300781 104.550781 -165.023438 102.125 -164.078125 L 97.171875 -162.25 C 92.734375 -160.59375 90.515625 -157.722656 90.515625 -153.640625 L 90.515625 -96.125 L 144.90625 -96.125 L 144.90625 -153.640625 C 144.90625 -157.722656 142.6875 -160.59375 138.25 -162.25 L 133.296875 -164.078125 C 130.859375 -165.023438 129.117188 -166.300781 128.078125 -167.90625 C 127.035156 -169.519531 126.515625 -171.457031 126.515625 -173.71875 C 126.515625 -176.5 127.425781 -178.671875 129.25 -180.234375 C 131.070312 -181.804688 133.894531 -182.59375 137.71875 -182.59375 L 212.59375 -182.59375 C 216.414062 -182.59375 219.238281 -181.804688 221.0625 -180.234375 C 222.882812 -178.671875 223.796875 -176.5 223.796875 -173.71875 C 223.796875 -171.457031 223.273438 -169.519531 222.234375 -167.90625 C 221.191406 -166.300781 219.453125 -165.023438 217.015625 -164.078125 L 212.0625 -162.25 C 207.632812 -160.59375 205.421875 -157.722656 205.421875 -153.640625 L 205.421875 -28.953125 C 205.421875 -24.953125 207.632812 -22.082031 212.0625 -20.34375 L 217.015625 -18.515625 C 219.453125 -17.648438 221.191406 -16.390625 222.234375 -14.734375 C 223.273438 -13.085938 223.796875 -11.132812 223.796875 -8.875 C 223.796875 -6.175781 222.882812 -4.019531 221.0625 -2.40625 C 219.238281 -0.800781 216.414062 0 212.59375 0 L 137.71875 0 C 133.894531 0 131.070312 -0.800781 129.25 -2.40625 C 127.425781 -4.019531 126.515625 -6.175781 126.515625 -8.875 C 126.515625 -11.132812 127.035156 -13.085938 128.078125 -14.734375 C 129.117188 -16.390625 130.859375 -17.648438 133.296875 -18.515625 L 138.25 -20.34375 C 142.6875 -22.082031 144.90625 -24.953125 144.90625 -28.953125 L 144.90625 -76.6875 L 90.515625 -76.6875 Z M 90.515625 -28.953125 "/></g></g></g><g fill="#ffffff" fill-opacity="1"><g transform="translate(1266.396801, 499.419864)"><g><path d="M 90.515625 -28.953125 C 90.515625 -24.953125 92.734375 -22.082031 97.171875 -20.34375 L 102.125 -18.515625 C 104.550781 -17.648438 106.285156 -16.390625 107.328125 -14.734375 C 108.378906 -13.085938 108.90625 -11.132812 108.90625 -8.875 C 108.90625 -6.175781 107.988281 -4.019531 106.15625 -2.40625 C 104.332031 -0.800781 101.507812 0 97.6875 0 L 22.828125 0 C 18.992188 0 16.164062 -0.800781 14.34375 -2.40625 C 12.519531 -4.019531 11.609375 -6.175781 11.609375 -8.875 C 11.609375 -11.132812 12.128906 -13.085938 13.171875 -14.734375 C 14.210938 -16.390625 15.953125 -17.648438 18.390625 -18.515625 L 23.34375 -20.34375 C 27.78125 -22.082031 30 -24.953125 30 -28.953125 L 30 -153.640625 C 30 -157.722656 27.78125 -160.59375 23.34375 -162.25 L 18.390625 -164.078125 C 15.953125 -165.023438 14.210938 -166.300781 13.171875 -167.90625 C 12.128906 -169.519531 11.609375 -171.457031 11.609375 -173.71875 C 11.609375 -176.5 12.519531 -178.671875 14.34375 -180.234375 C 16.164062 -181.804688 18.992188 -182.59375 22.828125 -182.59375 L 97.6875 -182.59375 C 101.507812 -182.59375 104.332031 -181.804688 106.15625 -180.234375 C 107.988281 -178.671875 108.90625 -176.5 108.90625 -173.71875 C 108.90625 -171.457031 108.378906 -169.519531 107.328125 -167.90625 C 106.285156 -166.300781 104.550781 -165.023438 102.125 -164.078125 L 97.171875 -162.25 C 92.734375 -160.59375 90.515625 -157.722656 90.515625 -153.640625 Z M 90.515625 -28.953125 "/></g></g></g><g fill="#ffffff" fill-opacity="1"><g transform="translate(0.517066, 745.856248)"><g><path d="M 53.609375 -182.59375 L 140.984375 -182.59375 C 144.984375 -182.59375 148.394531 -182.9375 151.21875 -183.625 C 154.050781 -184.320312 156.597656 -185 158.859375 -185.65625 C 161.117188 -186.3125 163.378906 -186.640625 165.640625 -186.640625 C 169.898438 -186.640625 173.070312 -185.613281 175.15625 -183.5625 C 177.238281 -181.519531 178.9375 -178.066406 180.25 -173.203125 L 188.59375 -129.765625 C 189.289062 -126.285156 189.003906 -123.457031 187.734375 -121.28125 C 186.472656 -119.113281 184.320312 -117.769531 181.28125 -117.25 C 178.5 -116.644531 176.039062 -116.816406 173.90625 -117.765625 C 171.78125 -118.722656 169.976562 -120.679688 168.5 -123.640625 C 164.675781 -131.285156 161.285156 -137.648438 158.328125 -142.734375 C 155.367188 -147.828125 152.609375 -151.828125 150.046875 -154.734375 C 147.484375 -157.648438 144.941406 -159.738281 142.421875 -161 C 139.898438 -162.257812 137.160156 -162.890625 134.203125 -162.890625 L 127.546875 -162.890625 L 127.546875 -28.953125 C 127.546875 -24.953125 129.765625 -22.082031 134.203125 -20.34375 L 139.15625 -18.515625 C 141.59375 -17.648438 143.332031 -16.390625 144.375 -14.734375 C 145.414062 -13.085938 145.9375 -11.132812 145.9375 -8.875 C 145.9375 -6.175781 145.023438 -4.019531 143.203125 -2.40625 C 141.378906 -0.800781 138.550781 0 134.71875 0 L 59.859375 0 C 56.035156 0 53.207031 -0.800781 51.375 -2.40625 C 49.550781 -4.019531 48.640625 -6.175781 48.640625 -8.875 C 48.640625 -11.132812 49.160156 -13.085938 50.203125 -14.734375 C 51.253906 -16.390625 52.992188 -17.648438 55.421875 -18.515625 L 60.390625 -20.34375 C 64.816406 -22.082031 67.03125 -24.953125 67.03125 -28.953125 L 67.03125 -162.890625 L 60.390625 -162.890625 C 57.429688 -162.890625 54.691406 -162.257812 52.171875 -161 C 49.648438 -159.738281 47.101562 -157.648438 44.53125 -154.734375 C 41.96875 -151.828125 39.207031 -147.828125 36.25 -142.734375 C 33.300781 -137.648438 29.910156 -131.285156 26.078125 -123.640625 C 24.609375 -120.679688 22.804688 -118.722656 20.671875 -117.765625 C 18.535156 -116.816406 16.078125 -116.644531 13.296875 -117.25 C 10.347656 -117.769531 8.242188 -119.113281 6.984375 -121.28125 C 5.722656 -123.457031 5.394531 -126.285156 6 -129.765625 L 14.34375 -173.203125 C 15.644531 -178.066406 17.335938 -181.519531 19.421875 -183.5625 C 21.515625 -185.613281 24.691406 -186.640625 28.953125 -186.640625 C 31.210938 -186.640625 33.472656 -186.3125 35.734375 -185.65625 C 37.992188 -185 40.535156 -184.320312 43.359375 -183.625 C 46.191406 -182.9375 49.609375 -182.59375 53.609375 -182.59375 Z M 53.609375 -182.59375 "/></g></g></g><g fill="#ffffff" fill-opacity="1"><g transform="translate(195.10727, 745.856248)"><g><path d="M 11.609375 -173.71875 C 11.609375 -176.5 12.519531 -178.671875 14.34375 -180.234375 C 16.164062 -181.804688 18.992188 -182.59375 22.828125 -182.59375 L 121.15625 -182.59375 C 125.15625 -182.59375 128.457031 -182.984375 131.0625 -183.765625 C 133.675781 -184.546875 136.132812 -185.328125 138.4375 -186.109375 C 140.75 -186.890625 143.425781 -187.28125 146.46875 -187.28125 C 150.375 -187.28125 153.328125 -186.171875 155.328125 -183.953125 C 157.328125 -181.742188 159.066406 -178.160156 160.546875 -173.203125 L 171.640625 -136.546875 C 173.460938 -130.285156 171.632812 -126.15625 166.15625 -124.15625 C 163.03125 -123.03125 160.226562 -123.03125 157.75 -124.15625 C 155.269531 -125.289062 153.25 -127.335938 151.6875 -130.296875 C 147.945312 -137.160156 144.421875 -142.785156 141.109375 -147.171875 C 137.804688 -151.566406 134.484375 -154.984375 131.140625 -157.421875 C 127.796875 -159.859375 124.273438 -161.550781 120.578125 -162.5 C 116.878906 -163.457031 112.726562 -163.9375 108.125 -163.9375 L 90.515625 -163.9375 L 90.515625 -101.859375 L 101.859375 -101.859375 C 105.515625 -101.859375 108.40625 -102.289062 110.53125 -103.15625 C 112.664062 -104.03125 114.40625 -105.597656 115.75 -107.859375 C 117.09375 -110.117188 118.375 -113.289062 119.59375 -117.375 C 120.46875 -120.332031 121.726562 -122.460938 123.375 -123.765625 C 125.03125 -125.078125 126.945312 -125.734375 129.125 -125.734375 C 131.382812 -125.734375 133.25 -125.054688 134.71875 -123.703125 C 136.195312 -122.359375 137.242188 -120.46875 137.859375 -118.03125 L 148.03125 -76.953125 C 149.507812 -70.773438 147.8125 -66.863281 142.9375 -65.21875 C 140.507812 -64.34375 138.226562 -64.207031 136.09375 -64.8125 C 133.96875 -65.425781 132.164062 -66.820312 130.6875 -69 C 127.90625 -73 125.359375 -76.039062 123.046875 -78.125 C 120.742188 -80.207031 118.179688 -81.640625 115.359375 -82.421875 C 112.535156 -83.203125 108.863281 -83.59375 104.34375 -83.59375 L 90.515625 -83.59375 L 90.515625 -34.5625 C 90.515625 -29.257812 91.835938 -25.28125 94.484375 -22.625 C 97.140625 -19.976562 100.945312 -18.65625 105.90625 -18.65625 L 112.03125 -18.65625 C 116.90625 -18.65625 121.335938 -19.195312 125.328125 -20.28125 C 129.328125 -21.363281 133.085938 -23.296875 136.609375 -26.078125 C 140.140625 -28.867188 143.640625 -32.804688 147.109375 -37.890625 C 150.585938 -42.972656 154.195312 -49.515625 157.9375 -57.515625 C 159.238281 -60.296875 161 -62.1875 163.21875 -63.1875 C 165.4375 -64.1875 167.9375 -64.425781 170.71875 -63.90625 C 173.757812 -63.300781 175.972656 -61.890625 177.359375 -59.671875 C 178.753906 -57.453125 178.976562 -54.691406 178.03125 -51.390625 L 165.890625 -9.390625 C 164.503906 -4.609375 162.789062 -1.066406 160.75 1.234375 C 158.707031 3.535156 155.554688 4.6875 151.296875 4.6875 C 148.597656 4.6875 146.140625 4.296875 143.921875 3.515625 C 141.703125 2.734375 139.265625 1.953125 136.609375 1.171875 C 133.960938 0.390625 130.640625 0 126.640625 0 L 22.828125 0 C 18.992188 0 16.164062 -0.800781 14.34375 -2.40625 C 12.519531 -4.019531 11.609375 -6.175781 11.609375 -8.875 C 11.609375 -11.132812 12.128906 -13.085938 13.171875 -14.734375 C 14.210938 -16.390625 15.953125 -17.648438 18.390625 -18.515625 L 23.34375 -20.34375 C 27.78125 -22.082031 30 -24.953125 30 -28.953125 L 30 -153.640625 C 30 -157.722656 27.78125 -160.59375 23.34375 -162.25 L 18.390625 -164.078125 C 15.953125 -165.023438 14.210938 -166.300781 13.171875 -167.90625 C 12.128906 -169.519531 11.609375 -171.457031 11.609375 -173.71875 Z M 11.609375 -173.71875 "/></g></g></g><g fill="#ffffff" fill-opacity="1"><g transform="translate(375.611857, 745.856248)"><g><path d="M 173.328125 -30.78125 C 175.148438 -28.082031 176.710938 -25.992188 178.015625 -24.515625 C 179.328125 -23.035156 180.722656 -21.882812 182.203125 -21.0625 C 183.679688 -20.238281 185.460938 -19.390625 187.546875 -18.515625 C 189.890625 -17.472656 191.710938 -16.171875 193.015625 -14.609375 C 194.328125 -13.046875 194.984375 -11.132812 194.984375 -8.875 C 194.984375 -6.175781 194.066406 -4.019531 192.234375 -2.40625 C 190.410156 -0.800781 187.585938 0 183.765625 0 L 102.25 0 C 98.425781 0 95.597656 -0.800781 93.765625 -2.40625 C 91.941406 -4.019531 91.03125 -6.175781 91.03125 -8.875 C 91.03125 -11.394531 91.640625 -13.414062 92.859375 -14.9375 C 94.078125 -16.457031 95.988281 -17.78125 98.59375 -18.90625 C 101.375 -20.039062 102.875 -22 103.09375 -24.78125 C 103.3125 -27.5625 102.117188 -30.953125 99.515625 -34.953125 L 80.46875 -64.03125 L 56.609375 -33.78125 C 53.390625 -29.601562 51.992188 -26.296875 52.421875 -23.859375 C 52.859375 -21.429688 54.296875 -19.609375 56.734375 -18.390625 L 58.5625 -17.46875 C 60.5625 -16.519531 62.035156 -15.390625 62.984375 -14.078125 C 63.941406 -12.773438 64.421875 -11.039062 64.421875 -8.875 C 64.421875 -6.175781 63.550781 -4.019531 61.8125 -2.40625 C 60.082031 -0.800781 57.429688 0 53.859375 0 L 14.609375 0 C 10.867188 0 8.082031 -0.800781 6.25 -2.40625 C 4.425781 -4.019531 3.515625 -6.175781 3.515625 -8.875 C 3.515625 -10.875 4.078125 -12.585938 5.203125 -14.015625 C 6.335938 -15.453125 8.34375 -16.953125 11.21875 -18.515625 C 14.957031 -20.515625 18.195312 -22.644531 20.9375 -24.90625 C 23.675781 -27.164062 26.21875 -29.6875 28.5625 -32.46875 C 30.90625 -35.257812 33.382812 -38.304688 36 -41.609375 L 68.34375 -82.8125 L 21.90625 -153.890625 C 20.164062 -156.679688 18.578125 -158.769531 17.140625 -160.15625 C 15.710938 -161.550781 13.609375 -162.859375 10.828125 -164.078125 C 8.210938 -165.378906 6.40625 -166.742188 5.40625 -168.171875 C 4.40625 -169.609375 3.90625 -171.457031 3.90625 -173.71875 C 3.90625 -176.5 4.816406 -178.671875 6.640625 -180.234375 C 8.472656 -181.804688 11.300781 -182.59375 15.125 -182.59375 L 92.59375 -182.59375 C 96.507812 -182.59375 99.269531 -181.785156 100.875 -180.171875 C 102.488281 -178.566406 103.296875 -176.414062 103.296875 -173.71875 C 103.296875 -171.375 102.925781 -169.460938 102.1875 -167.984375 C 101.445312 -166.503906 100.078125 -165.414062 98.078125 -164.71875 L 94.5625 -163.546875 C 92.46875 -162.847656 91.351562 -161.71875 91.21875 -160.15625 C 91.09375 -158.59375 92.078125 -156.160156 94.171875 -152.859375 L 115.03125 -120.765625 L 135.375 -147.640625 C 138.25 -151.460938 139.554688 -154.65625 139.296875 -157.21875 C 139.035156 -159.789062 137.507812 -161.726562 134.71875 -163.03125 L 131.984375 -164.328125 C 130.242188 -165.203125 128.804688 -166.421875 127.671875 -167.984375 C 126.546875 -169.546875 125.984375 -171.457031 125.984375 -173.71875 C 125.984375 -176.5 126.832031 -178.671875 128.53125 -180.234375 C 130.226562 -181.804688 132.898438 -182.59375 136.546875 -182.59375 L 175.671875 -182.59375 C 183.148438 -182.59375 186.890625 -179.722656 186.890625 -173.984375 C 186.890625 -171.722656 186.0625 -169.765625 184.40625 -168.109375 C 182.757812 -166.460938 180.414062 -164.8125 177.375 -163.15625 C 175.289062 -162.03125 173.351562 -160.597656 171.5625 -158.859375 C 169.78125 -157.117188 167.78125 -154.851562 165.5625 -152.0625 C 163.351562 -149.28125 160.550781 -145.71875 157.15625 -141.375 L 127.03125 -102.125 Z M 173.328125 -30.78125 "/></g></g></g><g clip-path="url(#05bc1af14f)"><path fill="#518953" d="M 919.074219 197.820312 C 947.519531 191.207031 973.625 186.441406 997.792969 183.046875 C 983.109375 170.34375 973.804688 151.601562 973.804688 130.699219 C 973.804688 92.417969 1004.808594 61.414062 1043.085938 61.414062 C 1081.367188 61.414062 1112.371094 92.417969 1112.371094 130.699219 C 1112.371094 148.382812 1105.667969 164.480469 1094.773438 176.695312 C 1233.386719 179.914062 1268.050781 242.714844 1268.050781 242.714844 C 1169.261719 204.214844 1034.53125 210.652344 844.628906 242.714844 C 680.347656 270.457031 611.195312 231.03125 595.496094 219.871094 C 610.136719 229 676.160156 254.183594 919.074219 197.820312 Z M 919.074219 197.820312 " fill-opacity="1" fill-rule="nonzero"/></g><path fill="#518953" d="M 686.171875 95.0625 C 662.488281 116.585938 677.789062 191.601562 677.789062 191.601562 C 600.523438 99.871094 698.519531 29.394531 698.519531 29.394531 C 764.054688 107.71875 700.414062 192.660156 700.414062 192.660156 C 701.695312 143.707031 709.851562 73.542969 686.171875 95.0625 Z M 686.171875 95.0625 " fill-opacity="1" fill-rule="nonzero"/><path fill="#518953" d="M 698.914062 218.460938 C 731.242188 211.402344 778.695312 205.140625 760.480469 194.335938 C 742.269531 183.53125 695.695312 204.699219 695.695312 204.699219 C 742.621094 143.664062 805.640625 191.25 805.640625 191.25 C 765.597656 243.15625 698.914062 218.460938 698.914062 218.460938 Z M 698.914062 218.460938 " fill-opacity="1" fill-rule="nonzero"/><g clip-path="url(#ccfae3449f)"><path fill="#518953" d="M 679.554688 200.996094 C 630.382812 175.8125 561.890625 134.3125 576.398438 165.273438 C 590.910156 196.234375 671.484375 219.914062 671.484375 219.914062 C 554.835938 241.347656 513.773438 122.40625 513.773438 122.40625 C 613.269531 104.5 679.554688 200.996094 679.554688 200.996094 Z M 679.554688 200.996094 " fill-opacity="1" fill-rule="nonzero"/></g><g clip-path="url(#574b3a97c3)"><path fill="#518953" d="M 1201.589844 107.324219 C 1200.398438 94.886719 1198.546875 82.449219 1195.152344 70.808594 C 1193.519531 64.984375 1191.226562 59.824219 1189.152344 52.636719 C 1187.257812 45.933594 1186.199219 39.140625 1185.359375 32.746094 C 1185.097656 30.761719 1184.789062 29.042969 1184.523438 27.234375 C 1183.289062 28.160156 1181.832031 29.21875 1180.507812 30.144531 C 1178.703125 31.203125 1176.894531 31.996094 1175.039062 32.921875 C 1160.441406 38.613281 1146.992188 38.921875 1133.847656 39.449219 C 1107.609375 39.847656 1082.292969 37.773438 1057.554688 38.832031 L 1056.804688 38.832031 C 1032.0625 37.730469 1006.746094 39.847656 980.507812 39.40625 C 967.363281 38.875 953.914062 38.566406 939.316406 32.878906 C 937.464844 31.996094 935.65625 31.160156 933.847656 30.101562 C 932.480469 29.175781 931.023438 28.117188 929.746094 27.101562 C 929.480469 28.867188 929.214844 30.761719 928.953125 32.703125 C 928.070312 39.097656 927.054688 45.890625 925.160156 52.59375 C 923.085938 59.78125 920.792969 64.898438 919.160156 70.71875 C 915.765625 82.40625 913.957031 94.796875 912.722656 107.277344 C 910.515625 132.328125 909.945312 157.820312 915.675781 182.78125 C 905.402344 159.097656 902.929688 132.59375 902.3125 106.792969 C 902.3125 93.785156 903.109375 80.6875 905.621094 67.5 C 906.769531 60.882812 909.195312 54.09375 910.253906 48.886719 C 911.488281 43.199219 912.015625 37.246094 912.457031 30.984375 C 912.679688 27.851562 912.855469 24.589844 913.339844 20.925781 C 913.605469 19.03125 913.957031 16.957031 914.882812 14.355469 C 915.589844 12.8125 916.292969 11.136719 918.101562 9.371094 C 920.351562 7.210938 923.085938 5.976562 926.085938 5.933594 C 931.378906 5.976562 933.625 7.785156 935.566406 8.84375 C 937.773438 10.121094 938.875 11.226562 940.550781 12.460938 L 943.195312 14.222656 L 946.328125 15.636719 C 955.765625 18.988281 968.378906 19.429688 980.640625 19.25 C 1005.335938 19.03125 1030.871094 16.871094 1057.066406 17.53125 C 1083.308594 16.824219 1108.886719 19.03125 1133.585938 19.25 C 1145.800781 19.429688 1158.457031 18.988281 1167.851562 15.636719 L 1170.984375 14.222656 L 1173.628906 12.460938 C 1175.304688 11.226562 1176.40625 10.121094 1178.613281 8.84375 C 1180.554688 7.828125 1182.757812 5.976562 1188.09375 5.933594 C 1191.09375 5.976562 1193.828125 7.167969 1196.078125 9.371094 C 1197.886719 11.179688 1198.589844 12.855469 1199.296875 14.398438 C 1200.222656 17.003906 1200.574219 19.074219 1200.839844 20.972656 C 1201.28125 24.589844 1201.503906 27.894531 1201.722656 31.027344 C 1202.164062 37.289062 1202.691406 43.242188 1203.925781 48.933594 C 1204.984375 54.136719 1207.410156 60.929688 1208.558594 67.542969 C 1211.070312 80.730469 1211.867188 93.828125 1211.867188 106.839844 C 1211.25 132.59375 1208.824219 159.144531 1198.503906 182.824219 C 1204.367188 157.863281 1203.839844 132.417969 1201.589844 107.324219 Z M 1201.589844 107.324219 " fill-opacity="1" fill-rule="nonzero"/></g></g></g></svg>