<svg xmlns="http://www.w3.org/2000/svg" xmlns:xlink="http://www.w3.org/1999/xlink" width="2000" zoomAndPan="magnify" viewBox="0 0 1500 1499.999933" height="2000" preserveAspectRatio="xMidYMid meet" version="1.0"><defs><g/><clipPath id="e69ecec844"><path d="M 0 0.921875 L 1250.640625 0.921875 L 1250.640625 736.761719 L 0 736.761719 Z M 0 0.921875 " clip-rule="nonzero"/></clipPath><clipPath id="1d790c91c8"><rect x="0" width="1251" y="0" height="737"/></clipPath><clipPath id="afb633c09e"><path d="M 462.511719 108 L 612 108 L 612 201 L 462.511719 201 Z M 462.511719 108 " clip-rule="nonzero"/></clipPath><clipPath id="aea85b82f1"><path d="M 812 5.085938 L 1092 5.085938 L 1092 165 L 812 165 Z M 812 5.085938 " clip-rule="nonzero"/></clipPath><clipPath id="b09a0e2fbf"><rect x="0" width="1251" y="0" height="737"/></clipPath></defs><g transform="matrix(1, 0, 0, 1, 150, 343)"><g clip-path="url(#b09a0e2fbf)"><g clip-path="url(#e69ecec844)"><g transform="matrix(1, 0, 0, 1, 0, 0.000000000000113687)"><g clip-path="url(#1d790c91c8)"><g fill="#1c324f" fill-opacity="1"><g transform="translate(0.00002043, 229.241018)"><g><path d="M 80.515625 3.53125 C 75.109375 3.53125 70.441406 2.976562 66.515625 1.875 C 62.597656 0.78125 59.304688 -0.3125 56.640625 -1.40625 C 53.984375 -2.507812 51.753906 -3.0625 49.953125 -3.0625 C 48.066406 -3.0625 46.359375 -2.6875 44.828125 -1.9375 C 43.304688 -1.195312 41.820312 -0.359375 40.375 0.578125 C 38.925781 1.523438 37.457031 2.367188 35.96875 3.109375 C 34.476562 3.859375 32.867188 4.234375 31.140625 4.234375 C 28.710938 4.234375 26.710938 3.523438 25.140625 2.109375 C 23.578125 0.703125 22.523438 -1.644531 21.984375 -4.9375 L 15.28125 -45.015625 C 14.570312 -49.640625 16.6875 -52.851562 21.625 -54.65625 C 26.71875 -56.457031 30.789062 -54.5 33.84375 -48.78125 C 38.78125 -39.53125 43.5625 -32.359375 48.1875 -27.265625 C 52.8125 -22.171875 57.453125 -18.625 62.109375 -16.625 C 66.773438 -14.632812 71.578125 -13.640625 76.515625 -13.640625 C 83.015625 -13.640625 88.222656 -15.144531 92.140625 -18.15625 C 96.054688 -21.175781 98.015625 -25.46875 98.015625 -31.03125 C 98.015625 -33.851562 97.523438 -36.398438 96.546875 -38.671875 C 95.566406 -40.941406 93.707031 -43.09375 90.96875 -45.125 C 88.226562 -47.164062 84.289062 -49.203125 79.15625 -51.234375 C 74.019531 -53.273438 67.300781 -55.507812 59 -57.9375 C 46.78125 -61.539062 36.984375 -65.847656 29.609375 -70.859375 C 22.242188 -75.878906 16.914062 -82.03125 13.625 -89.3125 C 10.34375 -96.601562 8.703125 -105.304688 8.703125 -115.421875 C 8.703125 -123.015625 10.109375 -129.984375 12.921875 -136.328125 C 15.742188 -142.679688 19.800781 -148.1875 25.09375 -152.84375 C 30.382812 -157.507812 36.769531 -161.132812 44.25 -163.71875 C 51.726562 -166.300781 60.132812 -167.59375 69.46875 -167.59375 C 75.882812 -167.59375 81.34375 -167.046875 85.84375 -165.953125 C 90.351562 -164.859375 94.210938 -163.742188 97.421875 -162.609375 C 100.640625 -161.472656 103.425781 -160.90625 105.78125 -160.90625 C 107.1875 -160.90625 108.492188 -161.273438 109.703125 -162.015625 C 110.921875 -162.765625 112.140625 -163.628906 113.359375 -164.609375 C 114.578125 -165.585938 115.925781 -166.445312 117.40625 -167.1875 C 118.894531 -167.9375 120.617188 -168.3125 122.578125 -168.3125 C 125.085938 -168.3125 127.203125 -167.503906 128.921875 -165.890625 C 130.648438 -164.285156 132.140625 -161.25 133.390625 -156.78125 L 143.859375 -118.234375 C 144.640625 -115.335938 144.519531 -112.769531 143.5 -110.53125 C 142.488281 -108.300781 140.6875 -106.753906 138.09375 -105.890625 C 135.4375 -105.035156 133.109375 -105.113281 131.109375 -106.125 C 129.109375 -107.144531 127.441406 -108.910156 126.109375 -111.421875 C 121.097656 -121.296875 115.75 -129.070312 110.0625 -134.75 C 104.382812 -140.425781 98.664062 -144.457031 92.90625 -146.84375 C 87.144531 -149.238281 81.5625 -150.4375 76.15625 -150.4375 C 69.96875 -150.4375 65.171875 -148.734375 61.765625 -145.328125 C 58.359375 -141.921875 56.65625 -137.515625 56.65625 -132.109375 C 56.65625 -129.523438 57.101562 -127.113281 58 -124.875 C 58.90625 -122.644531 60.648438 -120.453125 63.234375 -118.296875 C 65.816406 -116.140625 69.632812 -113.882812 74.6875 -111.53125 C 79.738281 -109.1875 86.378906 -106.5625 94.609375 -103.65625 C 106.597656 -99.507812 116.195312 -94.90625 123.40625 -89.84375 C 130.613281 -84.789062 135.84375 -78.914062 139.09375 -72.21875 C 142.34375 -65.519531 143.96875 -57.628906 143.96875 -48.546875 C 143.96875 -41.253906 142.519531 -34.472656 139.625 -28.203125 C 136.726562 -21.941406 132.535156 -16.421875 127.046875 -11.640625 C 121.566406 -6.859375 114.90625 -3.132812 107.0625 -0.46875 C 99.226562 2.195312 90.378906 3.53125 80.515625 3.53125 Z M 80.515625 3.53125 "/></g></g></g><g fill="#1c324f" fill-opacity="1"><g transform="translate(152.430704, 229.241018)"><g><path d="M 178.171875 -106.84375 C 178.171875 -98.375 175.820312 -90.710938 171.125 -83.859375 C 166.425781 -77.003906 159.765625 -71.695312 151.140625 -67.9375 L 176.171875 -25.03125 C 177.585938 -22.601562 178.863281 -20.78125 180 -19.5625 C 181.132812 -18.351562 182.601562 -17.316406 184.40625 -16.453125 C 186.363281 -15.515625 187.789062 -14.378906 188.6875 -13.046875 C 189.59375 -11.710938 190.046875 -10.023438 190.046875 -7.984375 C 190.046875 -5.554688 189.222656 -3.617188 187.578125 -2.171875 C 185.929688 -0.722656 183.382812 0 179.9375 0 L 121.640625 0 C 115.210938 0 112 -2.660156 112 -7.984375 C 112 -10.421875 113.140625 -12.460938 115.421875 -14.109375 L 116.828125 -15.15625 C 118.234375 -16.257812 119.035156 -17.316406 119.234375 -18.328125 C 119.429688 -19.347656 119.019531 -20.835938 118 -22.796875 L 100.609375 -57.359375 C 93.316406 -57.585938 86.96875 -58.523438 81.5625 -60.171875 L 81.5625 -26.09375 C 81.5625 -24.132812 81.929688 -22.566406 82.671875 -21.390625 C 83.421875 -20.210938 84.660156 -19.191406 86.390625 -18.328125 L 89.671875 -16.6875 C 92.097656 -15.507812 93.722656 -14.273438 94.546875 -12.984375 C 95.367188 -11.691406 95.78125 -10.023438 95.78125 -7.984375 C 95.78125 -5.554688 94.957031 -3.617188 93.3125 -2.171875 C 91.675781 -0.722656 89.132812 0 85.6875 0 L 20.5625 0 C 17.113281 0 14.566406 -0.722656 12.921875 -2.171875 C 11.273438 -3.617188 10.453125 -5.554688 10.453125 -7.984375 C 10.453125 -10.023438 10.921875 -11.789062 11.859375 -13.28125 C 12.804688 -14.769531 14.378906 -15.90625 16.578125 -16.6875 L 21.03125 -18.328125 C 25.03125 -19.898438 27.03125 -22.488281 27.03125 -26.09375 L 27.03125 -138.453125 C 27.03125 -142.128906 25.03125 -144.710938 21.03125 -146.203125 L 16.578125 -147.859375 C 14.378906 -148.710938 12.804688 -149.863281 11.859375 -151.3125 C 10.921875 -152.769531 10.453125 -154.515625 10.453125 -156.546875 C 10.453125 -159.054688 11.273438 -161.015625 12.921875 -162.421875 C 14.566406 -163.835938 17.113281 -164.546875 20.5625 -164.546875 L 88.390625 -164.546875 C 107.734375 -164.546875 124.082031 -162.113281 137.4375 -157.25 C 150.800781 -152.394531 160.929688 -145.640625 167.828125 -136.984375 C 174.722656 -128.328125 178.171875 -118.28125 178.171875 -106.84375 Z M 81.5625 -149.265625 L 81.5625 -74.875 C 84.851562 -74.164062 88.65625 -73.8125 92.96875 -73.8125 C 102.289062 -73.8125 109.535156 -76.394531 114.703125 -81.5625 C 119.878906 -86.738281 122.46875 -94.769531 122.46875 -105.65625 C 122.46875 -112.007812 121.566406 -117.828125 119.765625 -123.109375 C 117.960938 -128.398438 115.4375 -133.003906 112.1875 -136.921875 C 108.9375 -140.835938 105.097656 -143.875 100.671875 -146.03125 C 96.242188 -148.1875 91.40625 -149.265625 86.15625 -149.265625 Z M 81.5625 -149.265625 "/></g></g></g><g fill="#1c324f" fill-opacity="1"><g transform="translate(347.875735, 229.241018)"><g><path d="M 81.5625 -26.09375 C 81.5625 -22.488281 83.5625 -19.898438 87.5625 -18.328125 L 92.03125 -16.6875 C 94.21875 -15.90625 95.78125 -14.769531 96.71875 -13.28125 C 97.664062 -11.789062 98.140625 -10.023438 98.140625 -7.984375 C 98.140625 -5.554688 97.316406 -3.617188 95.671875 -2.171875 C 94.023438 -0.722656 91.476562 0 88.03125 0 L 20.5625 0 C 17.113281 0 14.566406 -0.722656 12.921875 -2.171875 C 11.273438 -3.617188 10.453125 -5.554688 10.453125 -7.984375 C 10.453125 -10.023438 10.921875 -11.789062 11.859375 -13.28125 C 12.804688 -14.769531 14.378906 -15.90625 16.578125 -16.6875 L 21.03125 -18.328125 C 25.03125 -19.898438 27.03125 -22.488281 27.03125 -26.09375 L 27.03125 -138.453125 C 27.03125 -142.128906 25.03125 -144.710938 21.03125 -146.203125 L 16.578125 -147.859375 C 14.378906 -148.710938 12.804688 -149.863281 11.859375 -151.3125 C 10.921875 -152.769531 10.453125 -154.515625 10.453125 -156.546875 C 10.453125 -159.054688 11.273438 -161.015625 12.921875 -162.421875 C 14.566406 -163.835938 17.113281 -164.546875 20.5625 -164.546875 L 88.03125 -164.546875 C 91.476562 -164.546875 94.023438 -163.835938 95.671875 -162.421875 C 97.316406 -161.015625 98.140625 -159.054688 98.140625 -156.546875 C 98.140625 -154.515625 97.664062 -152.769531 96.71875 -151.3125 C 95.78125 -149.863281 94.21875 -148.710938 92.03125 -147.859375 L 87.5625 -146.203125 C 83.5625 -144.710938 81.5625 -142.128906 81.5625 -138.453125 Z M 81.5625 -26.09375 "/></g></g></g><g fill="#1c324f" fill-opacity="1"><g transform="translate(0.00002043, 452.545306)"><g><path d="M 80.515625 3.53125 C 75.109375 3.53125 70.441406 2.976562 66.515625 1.875 C 62.597656 0.78125 59.304688 -0.3125 56.640625 -1.40625 C 53.984375 -2.507812 51.753906 -3.0625 49.953125 -3.0625 C 48.066406 -3.0625 46.359375 -2.6875 44.828125 -1.9375 C 43.304688 -1.195312 41.820312 -0.359375 40.375 0.578125 C 38.925781 1.523438 37.457031 2.367188 35.96875 3.109375 C 34.476562 3.859375 32.867188 4.234375 31.140625 4.234375 C 28.710938 4.234375 26.710938 3.523438 25.140625 2.109375 C 23.578125 0.703125 22.523438 -1.644531 21.984375 -4.9375 L 15.28125 -45.015625 C 14.570312 -49.640625 16.6875 -52.851562 21.625 -54.65625 C 26.71875 -56.457031 30.789062 -54.5 33.84375 -48.78125 C 38.78125 -39.53125 43.5625 -32.359375 48.1875 -27.265625 C 52.8125 -22.171875 57.453125 -18.625 62.109375 -16.625 C 66.773438 -14.632812 71.578125 -13.640625 76.515625 -13.640625 C 83.015625 -13.640625 88.222656 -15.144531 92.140625 -18.15625 C 96.054688 -21.175781 98.015625 -25.46875 98.015625 -31.03125 C 98.015625 -33.851562 97.523438 -36.398438 96.546875 -38.671875 C 95.566406 -40.941406 93.707031 -43.09375 90.96875 -45.125 C 88.226562 -47.164062 84.289062 -49.203125 79.15625 -51.234375 C 74.019531 -53.273438 67.300781 -55.507812 59 -57.9375 C 46.78125 -61.539062 36.984375 -65.847656 29.609375 -70.859375 C 22.242188 -75.878906 16.914062 -82.03125 13.625 -89.3125 C 10.34375 -96.601562 8.703125 -105.304688 8.703125 -115.421875 C 8.703125 -123.015625 10.109375 -129.984375 12.921875 -136.328125 C 15.742188 -142.679688 19.800781 -148.1875 25.09375 -152.84375 C 30.382812 -157.507812 36.769531 -161.132812 44.25 -163.71875 C 51.726562 -166.300781 60.132812 -167.59375 69.46875 -167.59375 C 75.882812 -167.59375 81.34375 -167.046875 85.84375 -165.953125 C 90.351562 -164.859375 94.210938 -163.742188 97.421875 -162.609375 C 100.640625 -161.472656 103.425781 -160.90625 105.78125 -160.90625 C 107.1875 -160.90625 108.492188 -161.273438 109.703125 -162.015625 C 110.921875 -162.765625 112.140625 -163.628906 113.359375 -164.609375 C 114.578125 -165.585938 115.925781 -166.445312 117.40625 -167.1875 C 118.894531 -167.9375 120.617188 -168.3125 122.578125 -168.3125 C 125.085938 -168.3125 127.203125 -167.503906 128.921875 -165.890625 C 130.648438 -164.285156 132.140625 -161.25 133.390625 -156.78125 L 143.859375 -118.234375 C 144.640625 -115.335938 144.519531 -112.769531 143.5 -110.53125 C 142.488281 -108.300781 140.6875 -106.753906 138.09375 -105.890625 C 135.4375 -105.035156 133.109375 -105.113281 131.109375 -106.125 C 129.109375 -107.144531 127.441406 -108.910156 126.109375 -111.421875 C 121.097656 -121.296875 115.75 -129.070312 110.0625 -134.75 C 104.382812 -140.425781 98.664062 -144.457031 92.90625 -146.84375 C 87.144531 -149.238281 81.5625 -150.4375 76.15625 -150.4375 C 69.96875 -150.4375 65.171875 -148.734375 61.765625 -145.328125 C 58.359375 -141.921875 56.65625 -137.515625 56.65625 -132.109375 C 56.65625 -129.523438 57.101562 -127.113281 58 -124.875 C 58.90625 -122.644531 60.648438 -120.453125 63.234375 -118.296875 C 65.816406 -116.140625 69.632812 -113.882812 74.6875 -111.53125 C 79.738281 -109.1875 86.378906 -106.5625 94.609375 -103.65625 C 106.597656 -99.507812 116.195312 -94.90625 123.40625 -89.84375 C 130.613281 -84.789062 135.84375 -78.914062 139.09375 -72.21875 C 142.34375 -65.519531 143.96875 -57.628906 143.96875 -48.546875 C 143.96875 -41.253906 142.519531 -34.472656 139.625 -28.203125 C 136.726562 -21.941406 132.535156 -16.421875 127.046875 -11.640625 C 121.566406 -6.859375 114.90625 -3.132812 107.0625 -0.46875 C 99.226562 2.195312 90.378906 3.53125 80.515625 3.53125 Z M 80.515625 3.53125 "/></g></g></g><g fill="#1c324f" fill-opacity="1"><g transform="translate(152.430704, 452.545306)"><g><path d="M 81.5625 -26.09375 C 81.5625 -22.488281 83.5625 -19.898438 87.5625 -18.328125 L 92.03125 -16.6875 C 94.21875 -15.90625 95.78125 -14.769531 96.71875 -13.28125 C 97.664062 -11.789062 98.140625 -10.023438 98.140625 -7.984375 C 98.140625 -5.554688 97.316406 -3.617188 95.671875 -2.171875 C 94.023438 -0.722656 91.476562 0 88.03125 0 L 20.5625 0 C 17.113281 0 14.566406 -0.722656 12.921875 -2.171875 C 11.273438 -3.617188 10.453125 -5.554688 10.453125 -7.984375 C 10.453125 -10.023438 10.921875 -11.789062 11.859375 -13.28125 C 12.804688 -14.769531 14.378906 -15.90625 16.578125 -16.6875 L 21.03125 -18.328125 C 25.03125 -19.898438 27.03125 -22.488281 27.03125 -26.09375 L 27.03125 -138.453125 C 27.03125 -142.128906 25.03125 -144.710938 21.03125 -146.203125 L 16.578125 -147.859375 C 14.378906 -148.710938 12.804688 -149.863281 11.859375 -151.3125 C 10.921875 -152.769531 10.453125 -154.515625 10.453125 -156.546875 C 10.453125 -159.054688 11.273438 -161.015625 12.921875 -162.421875 C 14.566406 -163.835938 17.113281 -164.546875 20.5625 -164.546875 L 88.03125 -164.546875 C 91.476562 -164.546875 94.023438 -163.835938 95.671875 -162.421875 C 97.316406 -161.015625 98.140625 -159.054688 98.140625 -156.546875 C 98.140625 -154.515625 97.664062 -152.769531 96.71875 -151.3125 C 95.78125 -149.863281 94.21875 -148.710938 92.03125 -147.859375 L 87.5625 -146.203125 C 83.5625 -144.710938 81.5625 -142.128906 81.5625 -138.453125 L 81.5625 -86.625 L 130.578125 -86.625 L 130.578125 -138.453125 C 130.578125 -142.128906 128.578125 -144.710938 124.578125 -146.203125 L 120.109375 -147.859375 C 117.921875 -148.710938 116.351562 -149.863281 115.40625 -151.3125 C 114.46875 -152.769531 114 -154.515625 114 -156.546875 C 114 -159.054688 114.820312 -161.015625 116.46875 -162.421875 C 118.113281 -163.835938 120.660156 -164.546875 124.109375 -164.546875 L 191.578125 -164.546875 C 195.023438 -164.546875 197.570312 -163.835938 199.21875 -162.421875 C 200.863281 -161.015625 201.6875 -159.054688 201.6875 -156.546875 C 201.6875 -154.515625 201.210938 -152.769531 200.265625 -151.3125 C 199.328125 -149.863281 197.765625 -148.710938 195.578125 -147.859375 L 191.109375 -146.203125 C 187.109375 -144.710938 185.109375 -142.128906 185.109375 -138.453125 L 185.109375 -26.09375 C 185.109375 -22.488281 187.109375 -19.898438 191.109375 -18.328125 L 195.578125 -16.6875 C 197.765625 -15.90625 199.328125 -14.769531 200.265625 -13.28125 C 201.210938 -11.789062 201.6875 -10.023438 201.6875 -7.984375 C 201.6875 -5.554688 200.863281 -3.617188 199.21875 -2.171875 C 197.570312 -0.722656 195.023438 0 191.578125 0 L 124.109375 0 C 120.660156 0 118.113281 -0.722656 116.46875 -2.171875 C 114.820312 -3.617188 114 -5.554688 114 -7.984375 C 114 -10.023438 114.46875 -11.789062 115.40625 -13.28125 C 116.351562 -14.769531 117.921875 -15.90625 120.109375 -16.6875 L 124.578125 -18.328125 C 128.578125 -19.898438 130.578125 -22.488281 130.578125 -26.09375 L 130.578125 -69.109375 L 81.5625 -69.109375 Z M 81.5625 -26.09375 "/></g></g></g><g fill="#1c324f" fill-opacity="1"><g transform="translate(364.564381, 452.545306)"><g><path d="M 60.875 -7.984375 C 60.875 -5.554688 60.070312 -3.617188 58.46875 -2.171875 C 56.863281 -0.722656 54.335938 0 50.890625 0 L 13.28125 0 C 9.914062 0 7.410156 -0.722656 5.765625 -2.171875 C 4.117188 -3.617188 3.296875 -5.554688 3.296875 -7.984375 C 3.296875 -11.117188 5.054688 -13.785156 8.578125 -15.984375 L 11.046875 -17.515625 C 12.773438 -18.609375 14.222656 -19.78125 15.390625 -21.03125 C 16.566406 -22.289062 17.644531 -24.035156 18.625 -26.265625 C 19.601562 -28.503906 20.679688 -31.539062 21.859375 -35.375 L 51.953125 -132.578125 C 53.359375 -137.203125 53.863281 -140.550781 53.46875 -142.625 C 53.082031 -144.695312 51.476562 -146.398438 48.65625 -147.734375 C 46.457031 -148.828125 44.90625 -150.078125 44 -151.484375 C 43.101562 -152.898438 42.65625 -154.585938 42.65625 -156.546875 C 42.65625 -159.054688 43.476562 -161.015625 45.125 -162.421875 C 46.769531 -163.835938 49.316406 -164.546875 52.765625 -164.546875 L 128.34375 -164.546875 C 131.789062 -164.546875 134.335938 -163.835938 135.984375 -162.421875 C 137.628906 -161.015625 138.453125 -159.054688 138.453125 -156.546875 C 138.453125 -154.429688 137.960938 -152.6875 136.984375 -151.3125 C 136.003906 -149.945312 134.613281 -148.832031 132.8125 -147.96875 C 130.851562 -147.03125 129.695312 -145.757812 129.34375 -144.15625 C 128.988281 -142.550781 129.359375 -140.023438 130.453125 -136.578125 L 162.78125 -34.203125 C 164.425781 -28.953125 165.914062 -25.09375 167.25 -22.625 C 168.582031 -20.15625 170.34375 -18.375 172.53125 -17.28125 C 175.28125 -15.863281 177.125 -14.488281 178.0625 -13.15625 C 179 -11.832031 179.46875 -10.109375 179.46875 -7.984375 C 179.46875 -5.554688 178.644531 -3.617188 177 -2.171875 C 175.351562 -0.722656 172.804688 0 169.359375 0 L 107.3125 0 C 103.78125 0 101.210938 -0.722656 99.609375 -2.171875 C 98.003906 -3.617188 97.203125 -5.554688 97.203125 -7.984375 C 97.203125 -9.953125 97.707031 -11.539062 98.71875 -12.75 C 99.738281 -13.96875 101.269531 -15.046875 103.3125 -15.984375 L 107.078125 -17.75 C 109.109375 -18.6875 109.96875 -19.957031 109.65625 -21.5625 C 109.34375 -23.164062 108.640625 -25.773438 107.546875 -29.390625 L 100.609375 -52.53125 L 48.546875 -52.53125 L 44.1875 -38.4375 C 42.9375 -34.4375 42.289062 -31.203125 42.25 -28.734375 C 42.207031 -26.265625 42.929688 -24.1875 44.421875 -22.5 C 45.910156 -20.820312 48.300781 -19.117188 51.59375 -17.390625 L 54.890625 -15.75 C 56.691406 -14.8125 58.140625 -13.773438 59.234375 -12.640625 C 60.328125 -11.503906 60.875 -9.953125 60.875 -7.984375 Z M 53.953125 -70.046875 L 95.3125 -70.046875 L 74.875 -137.625 Z M 53.953125 -70.046875 "/></g></g></g><g fill="#1c324f" fill-opacity="1"><g transform="translate(549.784686, 452.545306)"><g><path d="M 81.5625 -26.09375 C 81.5625 -24.132812 81.929688 -22.566406 82.671875 -21.390625 C 83.421875 -20.210938 84.660156 -19.191406 86.390625 -18.328125 L 89.671875 -16.6875 C 92.097656 -15.507812 93.722656 -14.273438 94.546875 -12.984375 C 95.367188 -11.691406 95.78125 -10.023438 95.78125 -7.984375 C 95.78125 -5.554688 94.957031 -3.617188 93.3125 -2.171875 C 91.675781 -0.722656 89.132812 0 85.6875 0 L 20.5625 0 C 17.113281 0 14.566406 -0.722656 12.921875 -2.171875 C 11.273438 -3.617188 10.453125 -5.554688 10.453125 -7.984375 C 10.453125 -10.023438 10.921875 -11.789062 11.859375 -13.28125 C 12.804688 -14.769531 14.378906 -15.90625 16.578125 -16.6875 L 21.03125 -18.328125 C 25.03125 -19.898438 27.03125 -22.488281 27.03125 -26.09375 L 27.03125 -138.453125 C 27.03125 -142.128906 25.03125 -144.710938 21.03125 -146.203125 L 16.578125 -147.859375 C 14.378906 -148.710938 12.804688 -149.863281 11.859375 -151.3125 C 10.921875 -152.769531 10.453125 -154.515625 10.453125 -156.546875 C 10.453125 -159.054688 11.273438 -161.015625 12.921875 -162.421875 C 14.566406 -163.835938 17.113281 -164.546875 20.5625 -164.546875 L 88.03125 -164.546875 C 91.476562 -164.546875 94.023438 -163.835938 95.671875 -162.421875 C 97.316406 -161.015625 98.140625 -159.054688 98.140625 -156.546875 C 98.140625 -154.515625 97.664062 -152.769531 96.71875 -151.3125 C 95.78125 -149.863281 94.21875 -148.710938 92.03125 -147.859375 L 87.5625 -146.203125 C 83.5625 -144.710938 81.5625 -142.128906 81.5625 -138.453125 L 81.5625 -82.15625 L 125.28125 -123.171875 C 131.550781 -129.128906 134.785156 -134.046875 134.984375 -137.921875 C 135.179688 -141.796875 133.164062 -144.675781 128.9375 -146.5625 L 125.515625 -148.09375 C 123.484375 -149.03125 121.976562 -150.164062 121 -151.5 C 120.019531 -152.832031 119.53125 -154.515625 119.53125 -156.546875 C 119.53125 -159.054688 120.351562 -161.015625 122 -162.421875 C 123.644531 -163.835938 126.191406 -164.546875 129.640625 -164.546875 L 181.46875 -164.546875 C 184.914062 -164.546875 187.460938 -163.835938 189.109375 -162.421875 C 190.753906 -161.015625 191.578125 -159.054688 191.578125 -156.546875 C 191.578125 -154.429688 190.96875 -152.785156 189.75 -151.609375 C 188.539062 -150.441406 186.210938 -149.113281 182.765625 -147.625 C 181.660156 -147.15625 180.5 -146.546875 179.28125 -145.796875 C 178.070312 -145.054688 176.410156 -143.84375 174.296875 -142.15625 C 172.179688 -140.46875 169.28125 -138 165.59375 -134.75 C 161.914062 -131.5 157.019531 -127.128906 150.90625 -121.640625 L 136.09375 -108.359375 L 185.109375 -26.5625 C 186.992188 -23.425781 188.660156 -21.25 190.109375 -20.03125 C 191.554688 -18.820312 193.023438 -17.941406 194.515625 -17.390625 C 196.628906 -16.296875 198.132812 -14.945312 199.03125 -13.34375 C 199.9375 -11.738281 200.390625 -9.953125 200.390625 -7.984375 C 200.390625 -5.554688 199.566406 -3.617188 197.921875 -2.171875 C 196.273438 -0.722656 193.726562 0 190.28125 0 L 123.875 0 C 120.425781 0 117.878906 -0.722656 116.234375 -2.171875 C 114.585938 -3.617188 113.765625 -5.597656 113.765625 -8.109375 C 113.765625 -10.148438 114.234375 -11.875 115.171875 -13.28125 C 116.117188 -14.6875 117.335938 -15.664062 118.828125 -16.21875 L 121.875 -17.390625 C 123.289062 -17.941406 123.976562 -18.960938 123.9375 -20.453125 C 123.894531 -21.941406 122.9375 -24.289062 121.0625 -27.5 L 95.203125 -71.578125 L 81.5625 -59.234375 Z M 81.5625 -26.09375 "/></g></g></g><g fill="#1c324f" fill-opacity="1"><g transform="translate(753.221456, 452.545306)"><g><path d="M 48.3125 -164.546875 L 127.046875 -164.546875 C 130.648438 -164.546875 133.722656 -164.859375 136.265625 -165.484375 C 138.816406 -166.109375 141.109375 -166.710938 143.140625 -167.296875 C 145.179688 -167.890625 147.222656 -168.1875 149.265625 -168.1875 C 153.109375 -168.1875 155.96875 -167.265625 157.84375 -165.421875 C 159.726562 -163.578125 161.253906 -160.460938 162.421875 -156.078125 L 169.953125 -116.9375 C 170.578125 -113.8125 170.320312 -111.265625 169.1875 -109.296875 C 168.050781 -107.335938 166.113281 -106.125 163.375 -105.65625 C 160.863281 -105.113281 158.644531 -105.269531 156.71875 -106.125 C 154.800781 -106.988281 153.175781 -108.753906 151.84375 -111.421875 C 148.394531 -118.316406 145.335938 -124.054688 142.671875 -128.640625 C 140.015625 -133.222656 137.53125 -136.828125 135.21875 -139.453125 C 132.90625 -142.078125 130.613281 -143.957031 128.34375 -145.09375 C 126.070312 -146.226562 123.601562 -146.796875 120.9375 -146.796875 L 114.953125 -146.796875 L 114.953125 -26.09375 C 114.953125 -22.488281 116.945312 -19.898438 120.9375 -18.328125 L 125.40625 -16.6875 C 127.601562 -15.90625 129.171875 -14.769531 130.109375 -13.28125 C 131.046875 -11.789062 131.515625 -10.023438 131.515625 -7.984375 C 131.515625 -5.554688 130.691406 -3.617188 129.046875 -2.171875 C 127.398438 -0.722656 124.851562 0 121.40625 0 L 53.953125 0 C 50.503906 0 47.957031 -0.722656 46.3125 -2.171875 C 44.664062 -3.617188 43.84375 -5.554688 43.84375 -7.984375 C 43.84375 -10.023438 44.3125 -11.789062 45.25 -13.28125 C 46.1875 -14.769531 47.753906 -15.90625 49.953125 -16.6875 L 54.421875 -18.328125 C 58.410156 -19.898438 60.40625 -22.488281 60.40625 -26.09375 L 60.40625 -146.796875 L 54.421875 -146.796875 C 51.753906 -146.796875 49.285156 -146.226562 47.015625 -145.09375 C 44.742188 -143.957031 42.453125 -142.078125 40.140625 -139.453125 C 37.828125 -136.828125 35.335938 -133.222656 32.671875 -128.640625 C 30.003906 -124.054688 26.945312 -118.316406 23.5 -111.421875 C 22.175781 -108.753906 20.550781 -106.988281 18.625 -106.125 C 16.707031 -105.269531 14.492188 -105.113281 11.984375 -105.65625 C 9.316406 -106.125 7.414062 -107.335938 6.28125 -109.296875 C 5.144531 -111.265625 4.851562 -113.8125 5.40625 -116.9375 L 12.921875 -156.078125 C 14.097656 -160.460938 15.625 -163.578125 17.5 -165.421875 C 19.382812 -167.265625 22.25 -168.1875 26.09375 -168.1875 C 28.125 -168.1875 30.160156 -167.890625 32.203125 -167.296875 C 34.242188 -166.710938 36.535156 -166.109375 39.078125 -165.484375 C 41.628906 -164.859375 44.707031 -164.546875 48.3125 -164.546875 Z M 48.3125 -164.546875 "/></g></g></g><g fill="#1c324f" fill-opacity="1"><g transform="translate(928.569674, 452.545306)"><g><path d="M 81.5625 -26.09375 C 81.5625 -22.488281 83.5625 -19.898438 87.5625 -18.328125 L 92.03125 -16.6875 C 94.21875 -15.90625 95.78125 -14.769531 96.71875 -13.28125 C 97.664062 -11.789062 98.140625 -10.023438 98.140625 -7.984375 C 98.140625 -5.554688 97.316406 -3.617188 95.671875 -2.171875 C 94.023438 -0.722656 91.476562 0 88.03125 0 L 20.5625 0 C 17.113281 0 14.566406 -0.722656 12.921875 -2.171875 C 11.273438 -3.617188 10.453125 -5.554688 10.453125 -7.984375 C 10.453125 -10.023438 10.921875 -11.789062 11.859375 -13.28125 C 12.804688 -14.769531 14.378906 -15.90625 16.578125 -16.6875 L 21.03125 -18.328125 C 25.03125 -19.898438 27.03125 -22.488281 27.03125 -26.09375 L 27.03125 -138.453125 C 27.03125 -142.128906 25.03125 -144.710938 21.03125 -146.203125 L 16.578125 -147.859375 C 14.378906 -148.710938 12.804688 -149.863281 11.859375 -151.3125 C 10.921875 -152.769531 10.453125 -154.515625 10.453125 -156.546875 C 10.453125 -159.054688 11.273438 -161.015625 12.921875 -162.421875 C 14.566406 -163.835938 17.113281 -164.546875 20.5625 -164.546875 L 88.03125 -164.546875 C 91.476562 -164.546875 94.023438 -163.835938 95.671875 -162.421875 C 97.316406 -161.015625 98.140625 -159.054688 98.140625 -156.546875 C 98.140625 -154.515625 97.664062 -152.769531 96.71875 -151.3125 C 95.78125 -149.863281 94.21875 -148.710938 92.03125 -147.859375 L 87.5625 -146.203125 C 83.5625 -144.710938 81.5625 -142.128906 81.5625 -138.453125 L 81.5625 -86.625 L 130.578125 -86.625 L 130.578125 -138.453125 C 130.578125 -142.128906 128.578125 -144.710938 124.578125 -146.203125 L 120.109375 -147.859375 C 117.921875 -148.710938 116.351562 -149.863281 115.40625 -151.3125 C 114.46875 -152.769531 114 -154.515625 114 -156.546875 C 114 -159.054688 114.820312 -161.015625 116.46875 -162.421875 C 118.113281 -163.835938 120.660156 -164.546875 124.109375 -164.546875 L 191.578125 -164.546875 C 195.023438 -164.546875 197.570312 -163.835938 199.21875 -162.421875 C 200.863281 -161.015625 201.6875 -159.054688 201.6875 -156.546875 C 201.6875 -154.515625 201.210938 -152.769531 200.265625 -151.3125 C 199.328125 -149.863281 197.765625 -148.710938 195.578125 -147.859375 L 191.109375 -146.203125 C 187.109375 -144.710938 185.109375 -142.128906 185.109375 -138.453125 L 185.109375 -26.09375 C 185.109375 -22.488281 187.109375 -19.898438 191.109375 -18.328125 L 195.578125 -16.6875 C 197.765625 -15.90625 199.328125 -14.769531 200.265625 -13.28125 C 201.210938 -11.789062 201.6875 -10.023438 201.6875 -7.984375 C 201.6875 -5.554688 200.863281 -3.617188 199.21875 -2.171875 C 197.570312 -0.722656 195.023438 0 191.578125 0 L 124.109375 0 C 120.660156 0 118.113281 -0.722656 116.46875 -2.171875 C 114.820312 -3.617188 114 -5.554688 114 -7.984375 C 114 -10.023438 114.46875 -11.789062 115.40625 -13.28125 C 116.351562 -14.769531 117.921875 -15.90625 120.109375 -16.6875 L 124.578125 -18.328125 C 128.578125 -19.898438 130.578125 -22.488281 130.578125 -26.09375 L 130.578125 -69.109375 L 81.5625 -69.109375 Z M 81.5625 -26.09375 "/></g></g></g><g fill="#1c324f" fill-opacity="1"><g transform="translate(1140.703376, 452.545306)"><g><path d="M 81.5625 -26.09375 C 81.5625 -22.488281 83.5625 -19.898438 87.5625 -18.328125 L 92.03125 -16.6875 C 94.21875 -15.90625 95.78125 -14.769531 96.71875 -13.28125 C 97.664062 -11.789062 98.140625 -10.023438 98.140625 -7.984375 C 98.140625 -5.554688 97.316406 -3.617188 95.671875 -2.171875 C 94.023438 -0.722656 91.476562 0 88.03125 0 L 20.5625 0 C 17.113281 0 14.566406 -0.722656 12.921875 -2.171875 C 11.273438 -3.617188 10.453125 -5.554688 10.453125 -7.984375 C 10.453125 -10.023438 10.921875 -11.789062 11.859375 -13.28125 C 12.804688 -14.769531 14.378906 -15.90625 16.578125 -16.6875 L 21.03125 -18.328125 C 25.03125 -19.898438 27.03125 -22.488281 27.03125 -26.09375 L 27.03125 -138.453125 C 27.03125 -142.128906 25.03125 -144.710938 21.03125 -146.203125 L 16.578125 -147.859375 C 14.378906 -148.710938 12.804688 -149.863281 11.859375 -151.3125 C 10.921875 -152.769531 10.453125 -154.515625 10.453125 -156.546875 C 10.453125 -159.054688 11.273438 -161.015625 12.921875 -162.421875 C 14.566406 -163.835938 17.113281 -164.546875 20.5625 -164.546875 L 88.03125 -164.546875 C 91.476562 -164.546875 94.023438 -163.835938 95.671875 -162.421875 C 97.316406 -161.015625 98.140625 -159.054688 98.140625 -156.546875 C 98.140625 -154.515625 97.664062 -152.769531 96.71875 -151.3125 C 95.78125 -149.863281 94.21875 -148.710938 92.03125 -147.859375 L 87.5625 -146.203125 C 83.5625 -144.710938 81.5625 -142.128906 81.5625 -138.453125 Z M 81.5625 -26.09375 "/></g></g></g><g fill="#1c324f" fill-opacity="1"><g transform="translate(0.00002043, 675.849595)"><g><path d="M 48.3125 -164.546875 L 127.046875 -164.546875 C 130.648438 -164.546875 133.722656 -164.859375 136.265625 -165.484375 C 138.816406 -166.109375 141.109375 -166.710938 143.140625 -167.296875 C 145.179688 -167.890625 147.222656 -168.1875 149.265625 -168.1875 C 153.109375 -168.1875 155.96875 -167.265625 157.84375 -165.421875 C 159.726562 -163.578125 161.253906 -160.460938 162.421875 -156.078125 L 169.953125 -116.9375 C 170.578125 -113.8125 170.320312 -111.265625 169.1875 -109.296875 C 168.050781 -107.335938 166.113281 -106.125 163.375 -105.65625 C 160.863281 -105.113281 158.644531 -105.269531 156.71875 -106.125 C 154.800781 -106.988281 153.175781 -108.753906 151.84375 -111.421875 C 148.394531 -118.316406 145.335938 -124.054688 142.671875 -128.640625 C 140.015625 -133.222656 137.53125 -136.828125 135.21875 -139.453125 C 132.90625 -142.078125 130.613281 -143.957031 128.34375 -145.09375 C 126.070312 -146.226562 123.601562 -146.796875 120.9375 -146.796875 L 114.953125 -146.796875 L 114.953125 -26.09375 C 114.953125 -22.488281 116.945312 -19.898438 120.9375 -18.328125 L 125.40625 -16.6875 C 127.601562 -15.90625 129.171875 -14.769531 130.109375 -13.28125 C 131.046875 -11.789062 131.515625 -10.023438 131.515625 -7.984375 C 131.515625 -5.554688 130.691406 -3.617188 129.046875 -2.171875 C 127.398438 -0.722656 124.851562 0 121.40625 0 L 53.953125 0 C 50.503906 0 47.957031 -0.722656 46.3125 -2.171875 C 44.664062 -3.617188 43.84375 -5.554688 43.84375 -7.984375 C 43.84375 -10.023438 44.3125 -11.789062 45.25 -13.28125 C 46.1875 -14.769531 47.753906 -15.90625 49.953125 -16.6875 L 54.421875 -18.328125 C 58.410156 -19.898438 60.40625 -22.488281 60.40625 -26.09375 L 60.40625 -146.796875 L 54.421875 -146.796875 C 51.753906 -146.796875 49.285156 -146.226562 47.015625 -145.09375 C 44.742188 -143.957031 42.453125 -142.078125 40.140625 -139.453125 C 37.828125 -136.828125 35.335938 -133.222656 32.671875 -128.640625 C 30.003906 -124.054688 26.945312 -118.316406 23.5 -111.421875 C 22.175781 -108.753906 20.550781 -106.988281 18.625 -106.125 C 16.707031 -105.269531 14.492188 -105.113281 11.984375 -105.65625 C 9.316406 -106.125 7.414062 -107.335938 6.28125 -109.296875 C 5.144531 -111.265625 4.851562 -113.8125 5.40625 -116.9375 L 12.921875 -156.078125 C 14.097656 -160.460938 15.625 -163.578125 17.5 -165.421875 C 19.382812 -167.265625 22.25 -168.1875 26.09375 -168.1875 C 28.125 -168.1875 30.160156 -167.890625 32.203125 -167.296875 C 34.242188 -166.710938 36.535156 -166.109375 39.078125 -165.484375 C 41.628906 -164.859375 44.707031 -164.546875 48.3125 -164.546875 Z M 48.3125 -164.546875 "/></g></g></g><g fill="#1c324f" fill-opacity="1"><g transform="translate(175.348181, 675.849595)"><g><path d="M 10.453125 -156.546875 C 10.453125 -159.054688 11.273438 -161.015625 12.921875 -162.421875 C 14.566406 -163.835938 17.113281 -164.546875 20.5625 -164.546875 L 109.1875 -164.546875 C 112.789062 -164.546875 115.765625 -164.894531 118.109375 -165.59375 C 120.460938 -166.300781 122.675781 -167.007812 124.75 -167.71875 C 126.832031 -168.425781 129.242188 -168.78125 131.984375 -168.78125 C 135.515625 -168.78125 138.179688 -167.78125 139.984375 -165.78125 C 141.785156 -163.78125 143.351562 -160.546875 144.6875 -156.078125 L 154.671875 -123.0625 C 156.316406 -117.414062 154.671875 -113.691406 149.734375 -111.890625 C 146.910156 -110.867188 144.378906 -110.867188 142.140625 -111.890625 C 139.910156 -112.910156 138.09375 -114.75 136.6875 -117.40625 C 133.320312 -123.601562 130.148438 -128.675781 127.171875 -132.625 C 124.191406 -136.582031 121.191406 -139.660156 118.171875 -141.859375 C 115.160156 -144.054688 111.988281 -145.582031 108.65625 -146.4375 C 105.320312 -147.300781 101.582031 -147.734375 97.4375 -147.734375 L 81.5625 -147.734375 L 81.5625 -91.796875 L 91.796875 -91.796875 C 95.085938 -91.796875 97.691406 -92.1875 99.609375 -92.96875 C 101.523438 -93.75 103.085938 -95.15625 104.296875 -97.1875 C 105.515625 -99.226562 106.675781 -102.09375 107.78125 -105.78125 C 108.5625 -108.445312 109.695312 -110.363281 111.1875 -111.53125 C 112.675781 -112.707031 114.398438 -113.296875 116.359375 -113.296875 C 118.390625 -113.296875 120.070312 -112.6875 121.40625 -111.46875 C 122.738281 -110.257812 123.679688 -108.554688 124.234375 -106.359375 L 133.390625 -69.34375 C 134.722656 -63.78125 133.195312 -60.253906 128.8125 -58.765625 C 126.613281 -57.984375 124.554688 -57.863281 122.640625 -58.40625 C 120.722656 -58.957031 119.097656 -60.210938 117.765625 -62.171875 C 115.253906 -65.773438 112.960938 -68.515625 110.890625 -70.390625 C 108.816406 -72.273438 106.503906 -73.570312 103.953125 -74.28125 C 101.410156 -74.988281 98.101562 -75.34375 94.03125 -75.34375 L 81.5625 -75.34375 L 81.5625 -31.140625 C 81.5625 -26.359375 82.753906 -22.773438 85.140625 -20.390625 C 87.535156 -18.003906 90.96875 -16.8125 95.4375 -16.8125 L 100.953125 -16.8125 C 105.347656 -16.8125 109.347656 -17.300781 112.953125 -18.28125 C 116.554688 -19.257812 119.941406 -21 123.109375 -23.5 C 126.285156 -26.007812 129.441406 -29.554688 132.578125 -34.140625 C 135.710938 -38.722656 138.960938 -44.617188 142.328125 -51.828125 C 143.503906 -54.335938 145.09375 -56.039062 147.09375 -56.9375 C 149.09375 -57.84375 151.34375 -58.0625 153.84375 -57.59375 C 156.59375 -57.039062 158.59375 -55.765625 159.84375 -53.765625 C 161.09375 -51.773438 161.289062 -49.289062 160.4375 -46.3125 L 149.5 -8.46875 C 148.25 -4.15625 146.703125 -0.960938 144.859375 1.109375 C 143.015625 3.191406 140.175781 4.234375 136.34375 4.234375 C 133.90625 4.234375 131.6875 3.878906 129.6875 3.171875 C 127.695312 2.460938 125.503906 1.753906 123.109375 1.046875 C 120.722656 0.347656 117.726562 0 114.125 0 L 20.5625 0 C 17.113281 0 14.566406 -0.722656 12.921875 -2.171875 C 11.273438 -3.617188 10.453125 -5.554688 10.453125 -7.984375 C 10.453125 -10.023438 10.921875 -11.789062 11.859375 -13.28125 C 12.804688 -14.769531 14.378906 -15.90625 16.578125 -16.6875 L 21.03125 -18.328125 C 25.03125 -19.898438 27.03125 -22.488281 27.03125 -26.09375 L 27.03125 -138.453125 C 27.03125 -142.128906 25.03125 -144.710938 21.03125 -146.203125 L 16.578125 -147.859375 C 14.378906 -148.710938 12.804688 -149.863281 11.859375 -151.3125 C 10.921875 -152.769531 10.453125 -154.515625 10.453125 -156.546875 Z M 10.453125 -156.546875 "/></g></g></g><g fill="#1c324f" fill-opacity="1"><g transform="translate(338.003612, 675.849595)"><g><path d="M 156.203125 -27.734375 C 157.847656 -25.304688 159.253906 -23.425781 160.421875 -22.09375 C 161.597656 -20.757812 162.851562 -19.71875 164.1875 -18.96875 C 165.519531 -18.226562 167.128906 -17.46875 169.015625 -16.6875 C 171.128906 -15.75 172.769531 -14.570312 173.9375 -13.15625 C 175.113281 -11.75 175.703125 -10.023438 175.703125 -7.984375 C 175.703125 -5.554688 174.878906 -3.617188 173.234375 -2.171875 C 171.585938 -0.722656 169.046875 0 165.609375 0 L 92.140625 0 C 88.691406 0 86.144531 -0.722656 84.5 -2.171875 C 82.851562 -3.617188 82.03125 -5.554688 82.03125 -7.984375 C 82.03125 -10.265625 82.578125 -12.085938 83.671875 -13.453125 C 84.773438 -14.828125 86.503906 -16.023438 88.859375 -17.046875 C 91.359375 -18.054688 92.707031 -19.816406 92.90625 -22.328125 C 93.101562 -24.835938 92.023438 -27.894531 89.671875 -31.5 L 72.515625 -57.703125 L 51.015625 -30.4375 C 48.109375 -26.675781 46.847656 -23.695312 47.234375 -21.5 C 47.628906 -19.3125 48.925781 -17.671875 51.125 -16.578125 L 52.765625 -15.75 C 54.566406 -14.882812 55.898438 -13.863281 56.765625 -12.6875 C 57.628906 -11.519531 58.0625 -9.953125 58.0625 -7.984375 C 58.0625 -5.554688 57.273438 -3.617188 55.703125 -2.171875 C 54.140625 -0.722656 51.753906 0 48.546875 0 L 13.15625 0 C 9.789062 0 7.285156 -0.722656 5.640625 -2.171875 C 3.992188 -3.617188 3.171875 -5.554688 3.171875 -7.984375 C 3.171875 -9.796875 3.679688 -11.347656 4.703125 -12.640625 C 5.722656 -13.929688 7.523438 -15.28125 10.109375 -16.6875 C 13.472656 -18.488281 16.390625 -20.40625 18.859375 -22.4375 C 21.328125 -24.476562 23.617188 -26.753906 25.734375 -29.265625 C 27.847656 -31.773438 30.082031 -34.519531 32.4375 -37.5 L 61.59375 -74.625 L 19.75 -138.6875 C 18.175781 -141.195312 16.742188 -143.078125 15.453125 -144.328125 C 14.160156 -145.578125 12.257812 -146.753906 9.75 -147.859375 C 7.40625 -149.035156 5.78125 -150.269531 4.875 -151.5625 C 3.976562 -152.851562 3.53125 -154.515625 3.53125 -156.546875 C 3.53125 -159.054688 4.351562 -161.015625 6 -162.421875 C 7.644531 -163.835938 10.191406 -164.546875 13.640625 -164.546875 L 83.453125 -164.546875 C 86.972656 -164.546875 89.457031 -163.816406 90.90625 -162.359375 C 92.351562 -160.910156 93.078125 -158.972656 93.078125 -156.546875 C 93.078125 -154.429688 92.742188 -152.707031 92.078125 -151.375 C 91.421875 -150.039062 90.191406 -149.0625 88.390625 -148.4375 L 85.203125 -147.390625 C 83.328125 -146.753906 82.328125 -145.734375 82.203125 -144.328125 C 82.085938 -142.921875 82.972656 -140.726562 84.859375 -137.75 L 103.65625 -108.828125 L 122 -133.046875 C 124.582031 -136.492188 125.753906 -139.375 125.515625 -141.6875 C 125.285156 -144 123.914062 -145.742188 121.40625 -146.921875 L 118.9375 -148.09375 C 117.375 -148.875 116.082031 -149.96875 115.0625 -151.375 C 114.039062 -152.789062 113.53125 -154.515625 113.53125 -156.546875 C 113.53125 -159.054688 114.296875 -161.015625 115.828125 -162.421875 C 117.359375 -163.835938 119.769531 -164.546875 123.0625 -164.546875 L 158.3125 -164.546875 C 165.050781 -164.546875 168.421875 -161.957031 168.421875 -156.78125 C 168.421875 -154.75 167.675781 -152.988281 166.1875 -151.5 C 164.695312 -150.007812 162.582031 -148.519531 159.84375 -147.03125 C 157.957031 -146.007812 156.210938 -144.710938 154.609375 -143.140625 C 153.003906 -141.578125 151.203125 -139.539062 149.203125 -137.03125 C 147.203125 -134.53125 144.675781 -131.320312 141.625 -127.40625 L 114.46875 -92.03125 Z M 156.203125 -27.734375 "/></g></g></g></g></g></g><path fill="#518953" d="M 827.742188 178.179688 C 853.375 172.21875 876.902344 167.925781 898.679688 164.863281 C 885.445312 153.417969 877.058594 136.527344 877.058594 117.691406 C 877.058594 83.195312 905 55.257812 939.492188 55.257812 C 973.988281 55.257812 1001.929688 83.195312 1001.929688 117.691406 C 1001.929688 133.628906 995.886719 148.132812 986.070312 159.140625 C 1110.980469 162.042969 1142.214844 218.636719 1142.214844 218.636719 C 1053.195312 183.941406 931.785156 189.742188 760.65625 218.636719 C 612.617188 243.632812 550.304688 208.105469 536.15625 198.050781 C 549.347656 206.277344 608.84375 228.96875 827.742188 178.179688 Z M 827.742188 178.179688 " fill-opacity="1" fill-rule="nonzero"/><path fill="#518953" d="M 617.863281 85.582031 C 596.523438 104.972656 610.3125 172.574219 610.3125 172.574219 C 540.6875 89.910156 628.992188 26.40625 628.992188 26.40625 C 688.046875 96.984375 630.699219 173.527344 630.699219 173.527344 C 631.851562 129.414062 639.207031 66.1875 617.863281 85.582031 Z M 617.863281 85.582031 " fill-opacity="1" fill-rule="nonzero"/><path fill="#518953" d="M 629.347656 196.777344 C 658.480469 190.417969 701.242188 184.777344 684.828125 175.039062 C 668.414062 165.300781 626.449219 184.378906 626.449219 184.378906 C 668.734375 129.375 725.523438 172.257812 725.523438 172.257812 C 689.4375 219.03125 629.347656 196.777344 629.347656 196.777344 Z M 629.347656 196.777344 " fill-opacity="1" fill-rule="nonzero"/><g clip-path="url(#afb633c09e)"><path fill="#518953" d="M 611.902344 181.039062 C 567.589844 158.347656 505.871094 120.949219 518.945312 148.847656 C 532.023438 176.746094 604.628906 198.089844 604.628906 198.089844 C 499.511719 217.402344 462.511719 110.21875 462.511719 110.21875 C 552.171875 94.085938 611.902344 181.039062 611.902344 181.039062 Z M 611.902344 181.039062 " fill-opacity="1" fill-rule="nonzero"/></g><g clip-path="url(#aea85b82f1)"><path fill="#518953" d="M 1082.324219 96.628906 C 1081.253906 85.421875 1079.582031 74.214844 1076.523438 63.722656 C 1075.054688 58.476562 1072.988281 53.828125 1071.117188 47.347656 C 1069.410156 41.308594 1068.457031 35.1875 1067.699219 29.425781 C 1067.460938 27.636719 1067.183594 26.085938 1066.945312 24.457031 C 1065.832031 25.292969 1064.523438 26.246094 1063.328125 27.082031 C 1061.699219 28.035156 1060.070312 28.75 1058.402344 29.585938 C 1045.246094 34.710938 1033.125 34.988281 1021.28125 35.464844 C 997.636719 35.824219 974.824219 33.957031 952.53125 34.910156 L 951.855469 34.910156 C 929.558594 33.914062 906.746094 35.824219 883.101562 35.425781 C 871.257812 34.949219 859.136719 34.671875 845.980469 29.542969 C 844.3125 28.75 842.683594 27.996094 841.054688 27.039062 C 839.820312 26.207031 838.511719 25.253906 837.359375 24.339844 C 837.121094 25.929688 836.878906 27.636719 836.640625 29.386719 C 835.847656 35.148438 834.933594 41.269531 833.222656 47.308594 C 831.355469 53.785156 829.289062 58.398438 827.820312 63.644531 C 824.757812 74.175781 823.128906 85.339844 822.015625 96.589844 C 820.03125 119.160156 819.511719 142.132812 824.679688 164.625 C 815.421875 143.285156 813.195312 119.398438 812.636719 96.152344 C 812.636719 84.425781 813.355469 72.625 815.617188 60.742188 C 816.652344 54.78125 818.839844 48.660156 819.792969 43.96875 C 820.90625 38.84375 821.382812 33.480469 821.777344 27.835938 C 821.976562 25.015625 822.136719 22.074219 822.574219 18.773438 C 822.8125 17.066406 823.128906 15.199219 823.964844 12.851562 C 824.601562 11.460938 825.238281 9.953125 826.867188 8.363281 C 828.894531 6.414062 831.355469 5.300781 834.058594 5.261719 C 838.828125 5.300781 840.855469 6.929688 842.605469 7.886719 C 844.589844 9.039062 845.585938 10.03125 847.09375 11.144531 L 849.480469 12.734375 L 852.300781 14.003906 C 860.804688 17.027344 872.171875 17.421875 883.21875 17.265625 C 905.476562 17.066406 928.484375 15.117188 952.09375 15.714844 C 975.738281 15.078125 998.789062 17.066406 1021.042969 17.265625 C 1032.050781 17.421875 1043.457031 17.027344 1051.921875 14.003906 L 1054.746094 12.734375 L 1057.128906 11.144531 C 1058.640625 10.03125 1059.632812 9.039062 1061.621094 7.886719 C 1063.367188 6.972656 1065.355469 5.300781 1070.164062 5.261719 C 1072.867188 5.300781 1075.332031 6.375 1077.359375 8.363281 C 1078.988281 9.992188 1079.625 11.5 1080.257812 12.890625 C 1081.09375 15.238281 1081.410156 17.105469 1081.648438 18.8125 C 1082.046875 22.074219 1082.246094 25.054688 1082.445312 27.875 C 1082.84375 33.519531 1083.320312 38.882812 1084.433594 44.011719 C 1085.386719 48.699219 1087.570312 54.820312 1088.605469 60.78125 C 1090.871094 72.664062 1091.585938 84.46875 1091.585938 96.191406 C 1091.027344 119.398438 1088.84375 143.324219 1079.542969 164.667969 C 1084.828125 142.171875 1084.351562 119.242188 1082.324219 96.628906 Z M 1082.324219 96.628906 " fill-opacity="1" fill-rule="nonzero"/></g></g></g></svg>